solid ExportedfromBlender-3.1.2
 facet normal -1 0 0
  outer loop
   vertex 0.114704 -0.0007482 -0.0265192
   vertex 0.114704 -0.0015792 -0.02648
   vertex 0.114704 8.36e-05 -0.0265322
  endloop
 endfacet
 facet normal -1 0 0
  outer loop
   vertex 0.114704 -0.0024085 -0.0264147
   vertex 0.114704 -0.0263972 -5.14e-05
   vertex 0.114704 8.36e-05 -0.0265322
  endloop
 endfacet
 facet normal -1 -0 0
  outer loop
   vertex 0.114704 0.0009153 -0.0265192
   vertex 0.114704 8.36e-05 -0.0265322
   vertex 0.114704 0.0017463 -0.02648
  endloop
 endfacet
 facet normal -1 -0 -0
  outer loop
   vertex 0.114704 0.0042261 0.0261035
   vertex 0.114704 0.0058602 0.0257917
   vertex 0.114704 0.0034025 0.0262207
  endloop
 endfacet
 facet normal -1 -0 0
  outer loop
   vertex 0.114704 0.0017463 -0.02648
   vertex 0.114704 8.36e-05 -0.0265322
   vertex 0.114704 0.0025756 -0.0264147
  endloop
 endfacet
 facet normal -1 0 0
  outer loop
   vertex 0.114704 -0.0032354 -0.0263234
   vertex 0.114704 -0.0056931 -0.0258945
   vertex 0.114704 -0.0024085 -0.0264147
  endloop
 endfacet
 facet normal -1 -0 0
  outer loop
   vertex 0.114704 0.0259267 -0.005828
   vertex 0.114704 0.0257325 -0.0066369
   vertex 0.114704 0.0260954 -0.0050134
  endloop
 endfacet
 facet normal -1 0 0
  outer loop
   vertex 0.114704 -0.004059 -0.0262062
   vertex 0.114704 -0.0056931 -0.0258945
   vertex 0.114704 -0.0032354 -0.0263234
  endloop
 endfacet
 facet normal -1 0 0
  outer loop
   vertex 0.114704 -0.0119385 -0.023646
   vertex 0.114704 -0.0154815 -0.0214748
   vertex 0.114704 -0.0056931 -0.0258945
  endloop
 endfacet
 facet normal -1 0 0
  outer loop
   vertex 0.114704 -0.0048785 -0.0260632
   vertex 0.114704 -0.0056931 -0.0258945
   vertex 0.114704 -0.004059 -0.0262062
  endloop
 endfacet
 facet normal -1 0 -0
  outer loop
   vertex 0.114704 -0.0248318 0.0089187
   vertex 0.114704 -0.0245377 0.0096969
   vertex 0.114704 -0.0251012 0.0081317
  endloop
 endfacet
 facet normal -1 -0 0
  outer loop
   vertex 0.114704 0.0042261 -0.0262062
   vertex 0.114704 0.0034025 -0.0263234
   vertex 0.114704 0.0058602 -0.0258945
  endloop
 endfacet
 facet normal -1 -0 0
  outer loop
   vertex 0.114704 0.0050456 -0.0260632
   vertex 0.114704 0.0042261 -0.0262062
   vertex 0.114704 0.0058602 -0.0258945
  endloop
 endfacet
 facet normal -1 0 0
  outer loop
   vertex 0.114704 -0.006502 -0.0257003
   vertex 0.114704 -0.0073044 -0.0254808
   vertex 0.114704 -0.0056931 -0.0258945
  endloop
 endfacet
 facet normal -1 0 0
  outer loop
   vertex 0.114704 -0.0262798 -0.0025435
   vertex 0.114704 -0.0263451 -0.0017141
   vertex 0.114704 -0.0263842 -0.0008832
  endloop
 endfacet
 facet normal -1 0 0
  outer loop
   vertex 0.114704 0.0156486 -0.0214748
   vertex 0.114704 0.0090536 -0.0249667
   vertex 0.114704 0.0074715 -0.0254808
  endloop
 endfacet
 facet normal -1 -0 0
  outer loop
   vertex 0.114704 0.0066691 -0.0257003
   vertex 0.114704 0.0058602 -0.0258945
   vertex 0.114704 0.0074715 -0.0254808
  endloop
 endfacet
 facet normal -1 0 0
  outer loop
   vertex 0.114704 -0.0080995 -0.0252362
   vertex 0.114704 -0.0088865 -0.0249667
   vertex 0.114704 -0.0073044 -0.0254808
  endloop
 endfacet
 facet normal -1 0 0
  outer loop
   vertex 0.114704 -0.0141056 -0.0224099
   vertex 0.114704 -0.0154815 -0.0214748
   vertex 0.114704 -0.0119385 -0.023646
  endloop
 endfacet
 facet normal -1 0 0
  outer loop
   vertex 0.114704 -0.0119385 -0.023646
   vertex 0.114704 -0.0056931 -0.0258945
   vertex 0.114704 -0.0088865 -0.0249667
  endloop
 endfacet
 facet normal -1 -0 0
  outer loop
   vertex 0.114704 0.0082666 -0.0252362
   vertex 0.114704 0.0074715 -0.0254808
   vertex 0.114704 0.0090536 -0.0249667
  endloop
 endfacet
 facet normal -1 0 0
  outer loop
   vertex 0.114704 -0.0096647 -0.0246727
   vertex 0.114704 -0.0104333 -0.0243543
   vertex 0.114704 -0.0088865 -0.0249667
  endloop
 endfacet
 facet normal -1 0 0
  outer loop
   vertex 0.114704 0.0025756 -0.0264147
   vertex 0.114704 0.0156486 -0.0214748
   vertex 0.114704 0.0058602 -0.0258945
  endloop
 endfacet
 facet normal -1 0 0
  outer loop
   vertex 0.114704 -0.0104333 -0.0243543
   vertex 0.114704 -0.0119385 -0.023646
   vertex 0.114704 -0.0088865 -0.0249667
  endloop
 endfacet
 facet normal -1 -0 0
  outer loop
   vertex 0.114704 0.0098318 -0.0246727
   vertex 0.114704 0.0090536 -0.0249667
   vertex 0.114704 0.0106004 -0.0243543
  endloop
 endfacet
 facet normal -1 0 0
  outer loop
   vertex 0.114704 -0.0111914 -0.024012
   vertex 0.114704 -0.0119385 -0.023646
   vertex 0.114704 -0.0104333 -0.0243543
  endloop
 endfacet
 facet normal -1 0 0
  outer loop
   vertex 0.114704 -0.0255654 0.0065341
   vertex 0.114704 -0.0263972 -5.14e-05
   vertex 0.114704 -0.0259282 0.0049106
  endloop
 endfacet
 facet normal -1 0 0
  outer loop
   vertex 0.114704 0.0058602 -0.0258945
   vertex 0.114704 0.0156486 -0.0214748
   vertex 0.114704 0.0074715 -0.0254808
  endloop
 endfacet
 facet normal -1 0 0
  outer loop
   vertex 0.114704 0.0106004 -0.0243543
   vertex 0.114704 0.0128408 -0.0232567
   vertex 0.114704 0.0113585 -0.024012
  endloop
 endfacet
 facet normal -1 0 0
  outer loop
   vertex 0.114704 -0.0154815 -0.0214748
   vertex 0.114704 -0.0263972 -5.14e-05
   vertex 0.114704 -0.0024085 -0.0264147
  endloop
 endfacet
 facet normal -1 0 0
  outer loop
   vertex 0.114704 -0.0119385 -0.023646
   vertex 0.114704 -0.0126737 -0.0232567
   vertex 0.114704 -0.0141056 -0.0224099
  endloop
 endfacet
 facet normal -1 0 0
  outer loop
   vertex 0.114704 -0.0133963 -0.0228446
   vertex 0.114704 -0.0141056 -0.0224099
   vertex 0.114704 -0.0126737 -0.0232567
  endloop
 endfacet
 facet normal -1 0 0
  outer loop
   vertex 0.114704 -0.0154815 -0.0214748
   vertex 0.114704 -0.0024085 -0.0264147
   vertex 0.114704 -0.0056931 -0.0258945
  endloop
 endfacet
 facet normal -1 0 0
  outer loop
   vertex 0.114704 0.0262384 0.0040911
   vertex 0.114704 0.0224421 0.0141378
   vertex 0.114704 0.0257325 0.0065341
  endloop
 endfacet
 facet normal -1 -0 0
  outer loop
   vertex 0.114704 0.0135634 -0.0228446
   vertex 0.114704 0.0128408 -0.0232567
   vertex 0.114704 0.0142727 -0.0224099
  endloop
 endfacet
 facet normal -1 0 0
  outer loop
   vertex 0.114704 -0.0148009 -0.0219532
   vertex 0.114704 -0.0154815 -0.0214748
   vertex 0.114704 -0.0141056 -0.0224099
  endloop
 endfacet
 facet normal -1 0 0
  outer loop
   vertex 0.114704 0.0156486 -0.0214748
   vertex 0.114704 0.0142727 -0.0224099
   vertex 0.114704 0.0090536 -0.0249667
  endloop
 endfacet
 facet normal -1 0 0
  outer loop
   vertex 0.114704 0.0204874 -0.0169309
   vertex 0.114704 0.0262384 -0.0041939
   vertex 0.114704 0.0257325 -0.0066369
  endloop
 endfacet
 facet normal -1 -0 0
  outer loop
   vertex 0.114704 0.014968 -0.0219532
   vertex 0.114704 0.0142727 -0.0224099
   vertex 0.114704 0.0156486 -0.0214748
  endloop
 endfacet
 facet normal -1 0 0
  outer loop
   vertex 0.114704 -0.0203203 -0.0169309
   vertex 0.114704 -0.0180438 -0.0193551
   vertex 0.114704 -0.0186412 -0.0187762
  endloop
 endfacet
 facet normal -1 0 0
  outer loop
   vertex 0.114704 -0.0263972 -5.14e-05
   vertex 0.114704 0.0156486 -0.0214748
   vertex 0.114704 0.0025756 -0.0264147
  endloop
 endfacet
 facet normal -1 0 0
  outer loop
   vertex 0.114704 -0.016796 -0.0204552
   vertex 0.114704 -0.0180438 -0.0193551
   vertex 0.114704 -0.0161468 -0.0209754
  endloop
 endfacet
 facet normal -1 -0 0
  outer loop
   vertex 0.114704 0.0163139 -0.0209754
   vertex 0.114704 0.0156486 -0.0214748
   vertex 0.114704 0.0204874 -0.0169309
  endloop
 endfacet
 facet normal -1 0 0
  outer loop
   vertex 0.114704 -0.0174286 -0.019915
   vertex 0.114704 -0.0180438 -0.0193551
   vertex 0.114704 -0.016796 -0.0204552
  endloop
 endfacet
 facet normal -1 0 -0
  outer loop
   vertex 0.114704 -0.016796 0.0203525
   vertex 0.114704 -0.0148009 0.0218504
   vertex 0.114704 -0.0180438 0.0192523
  endloop
 endfacet
 facet normal -1 -0 0
  outer loop
   vertex 0.114704 0.0169631 -0.0204552
   vertex 0.114704 0.0163139 -0.0209754
   vertex 0.114704 0.0182109 -0.0193551
  endloop
 endfacet
 facet normal -1 -0 0
  outer loop
   vertex 0.114704 0.0175957 -0.019915
   vertex 0.114704 0.0169631 -0.0204552
   vertex 0.114704 0.0182109 -0.0193551
  endloop
 endfacet
 facet normal -1 0 0
  outer loop
   vertex 0.114704 -0.01978 -0.0175635
   vertex 0.114704 -0.0203203 -0.0169309
   vertex 0.114704 -0.0186412 -0.0187762
  endloop
 endfacet
 facet normal -1 0 0
  outer loop
   vertex 0.114704 0.0090536 -0.0249667
   vertex 0.114704 0.0142727 -0.0224099
   vertex 0.114704 0.0106004 -0.0243543
  endloop
 endfacet
 facet normal -1 0 0
  outer loop
   vertex 0.114704 -0.0192202 -0.0181788
   vertex 0.114704 -0.01978 -0.0175635
   vertex 0.114704 -0.0186412 -0.0187762
  endloop
 endfacet
 facet normal -1 -0 0
  outer loop
   vertex 0.114704 0.0188084 -0.0187762
   vertex 0.114704 0.0182109 -0.0193551
   vertex 0.114704 0.0199471 -0.0175635
  endloop
 endfacet
 facet normal -1 -0 0
  outer loop
   vertex 0.114704 0.0182109 -0.0193551
   vertex 0.114704 0.0163139 -0.0209754
   vertex 0.114704 0.0204874 -0.0169309
  endloop
 endfacet
 facet normal -1 -0 0
  outer loop
   vertex 0.114704 0.0193873 -0.0181788
   vertex 0.114704 0.0188084 -0.0187762
   vertex 0.114704 0.0199471 -0.0175635
  endloop
 endfacet
 facet normal -1 0 0
  outer loop
   vertex 0.114704 -0.0203203 -0.0169309
   vertex 0.114704 -0.0263972 -5.14e-05
   vertex 0.114704 -0.0154815 -0.0214748
  endloop
 endfacet
 facet normal -1 -0 0
  outer loop
   vertex 0.114704 0.0199471 -0.0175635
   vertex 0.114704 0.0182109 -0.0193551
   vertex 0.114704 0.0204874 -0.0169309
  endloop
 endfacet
 facet normal -1 0 0
  outer loop
   vertex 0.114704 -0.0208404 -0.0162817
   vertex 0.114704 -0.0213399 -0.0156164
   vertex 0.114704 -0.0203203 -0.0169309
  endloop
 endfacet
 facet normal -1 0 0
  outer loop
   vertex 0.114704 0.0224421 0.0141378
   vertex 0.114704 0.0240441 0.0112236
   vertex 0.114704 0.0249989 0.0089187
  endloop
 endfacet
 facet normal -1 0 0
  outer loop
   vertex 0.114704 -0.0203203 -0.0169309
   vertex 0.114704 -0.0213399 -0.0156164
   vertex 0.114704 -0.022275 -0.0142405
  endloop
 endfacet
 facet normal -1 -0 0
  outer loop
   vertex 0.114704 0.0210075 -0.0162817
   vertex 0.114704 0.0204874 -0.0169309
   vertex 0.114704 0.021507 -0.0156164
  endloop
 endfacet
 facet normal -1 0 0
  outer loop
   vertex 0.114704 -0.0218183 -0.0149358
   vertex 0.114704 -0.022275 -0.0142405
   vertex 0.114704 -0.0213399 -0.0156164
  endloop
 endfacet
 facet normal -1 0 0
  outer loop
   vertex 0.114704 0.0204874 -0.0169309
   vertex 0.114704 -0.0263972 -5.14e-05
   vertex 0.114704 0.0262384 -0.0041939
  endloop
 endfacet
 facet normal -1 0 0
  outer loop
   vertex 0.114704 -0.0263972 -5.14e-05
   vertex 0.114704 0.0025756 -0.0264147
   vertex 0.114704 8.36e-05 -0.0265322
  endloop
 endfacet
 facet normal -1 -0 0
  outer loop
   vertex 0.114704 0.0219854 -0.0149358
   vertex 0.114704 0.021507 -0.0156164
   vertex 0.114704 0.0224421 -0.0142405
  endloop
 endfacet
 facet normal -1 0 0
  outer loop
   vertex 0.114704 -0.01978 0.0174607
   vertex 0.114704 -0.0180438 0.0192523
   vertex 0.114704 -0.0148009 0.0218504
  endloop
 endfacet
 facet normal -1 0 0
  outer loop
   vertex 0.114704 -0.0203203 -0.0169309
   vertex 0.114704 -0.022275 -0.0142405
   vertex 0.114704 -0.0245377 -0.0097996
  endloop
 endfacet
 facet normal -1 0 0
  outer loop
   vertex 0.114704 -0.0235111 -0.0120734
   vertex 0.114704 -0.023877 -0.0113264
   vertex 0.114704 -0.0231218 -0.0128086
  endloop
 endfacet
 facet normal -1 0 0
  outer loop
   vertex 0.114704 0.0240441 -0.0113264
   vertex 0.114704 0.0236782 -0.0120734
   vertex 0.114704 0.0232889 -0.0128086
  endloop
 endfacet
 facet normal -1 0 0
  outer loop
   vertex 0.114704 -0.0227096 -0.0135312
   vertex 0.114704 -0.023877 -0.0113264
   vertex 0.114704 -0.0245377 -0.0097996
  endloop
 endfacet
 facet normal -1 0 0
  outer loop
   vertex 0.114704 0.0228767 -0.0135312
   vertex 0.114704 0.0240441 -0.0113264
   vertex 0.114704 0.0232889 -0.0128086
  endloop
 endfacet
 facet normal -1 0 0
  outer loop
   vertex 0.114704 0.0199471 0.0174607
   vertex 0.114704 8.36e-05 0.0264294
   vertex 0.114704 0.014968 0.0218504
  endloop
 endfacet
 facet normal -1 0 0
  outer loop
   vertex 0.114704 -0.023877 -0.0113264
   vertex 0.114704 -0.0227096 -0.0135312
   vertex 0.114704 -0.0231218 -0.0128086
  endloop
 endfacet
 facet normal -1 0 0
  outer loop
   vertex 0.114704 -0.0242194 -0.0105682
   vertex 0.114704 -0.0245377 -0.0097996
   vertex 0.114704 -0.023877 -0.0113264
  endloop
 endfacet
 facet normal -1 0 0
  outer loop
   vertex 0.114704 -0.022275 -0.0142405
   vertex 0.114704 -0.0227096 -0.0135312
   vertex 0.114704 -0.0245377 -0.0097996
  endloop
 endfacet
 facet normal -1 0 0
  outer loop
   vertex 0.114704 -0.0263972 -5.14e-05
   vertex 0.114704 -0.0203203 -0.0169309
   vertex 0.114704 -0.0245377 -0.0097996
  endloop
 endfacet
 facet normal -1 0 0
  outer loop
   vertex 0.114704 0.0128408 -0.0232567
   vertex 0.114704 0.0121056 -0.023646
   vertex 0.114704 0.0113585 -0.024012
  endloop
 endfacet
 facet normal -1 0 0
  outer loop
   vertex 0.114704 -0.0245377 -0.0097996
   vertex 0.114704 -0.0251012 -0.0082344
   vertex 0.114704 -0.0263972 -5.14e-05
  endloop
 endfacet
 facet normal -1 0 0
  outer loop
   vertex 0.114704 -0.0245377 -0.0097996
   vertex 0.114704 -0.0248318 -0.0090214
   vertex 0.114704 -0.0251012 -0.0082344
  endloop
 endfacet
 facet normal -1 0 0
  outer loop
   vertex 0.114704 0.0249989 -0.0090214
   vertex 0.114704 0.0247048 -0.0097996
   vertex 0.114704 0.0243865 -0.0105682
  endloop
 endfacet
 facet normal -1 0 0
  outer loop
   vertex 0.114704 0.0257325 -0.0066369
   vertex 0.114704 0.025513 -0.0074393
   vertex 0.114704 0.0252684 -0.0082344
  endloop
 endfacet
 facet normal -1 0 0
  outer loop
   vertex 0.114704 0.0249989 -0.0090214
   vertex 0.114704 0.0257325 -0.0066369
   vertex 0.114704 0.0252684 -0.0082344
  endloop
 endfacet
 facet normal -1 0 0
  outer loop
   vertex 0.114704 -0.0251012 -0.0082344
   vertex 0.114704 -0.0253458 -0.0074393
   vertex 0.114704 -0.0255654 -0.0066369
  endloop
 endfacet
 facet normal -1 0 0
  outer loop
   vertex 0.114704 -0.0251012 -0.0082344
   vertex 0.114704 -0.0255654 -0.0066369
   vertex 0.114704 -0.0263972 -5.14e-05
  endloop
 endfacet
 facet normal -1 -0 0
  outer loop
   vertex 0.114704 0.0243865 -0.0105682
   vertex 0.114704 0.0240441 -0.0113264
   vertex 0.114704 0.0249989 -0.0090214
  endloop
 endfacet
 facet normal -1 -0 0
  outer loop
   vertex 0.114704 0.0224421 -0.0142405
   vertex 0.114704 0.0204874 -0.0169309
   vertex 0.114704 0.0228767 -0.0135312
  endloop
 endfacet
 facet normal -1 0 0
  outer loop
   vertex 0.114704 -0.0203203 -0.0169309
   vertex 0.114704 -0.0154815 -0.0214748
   vertex 0.114704 -0.0180438 -0.0193551
  endloop
 endfacet
 facet normal -1 0 0
  outer loop
   vertex 0.114704 -0.0263972 -5.14e-05
   vertex 0.114704 -0.0255654 -0.0066369
   vertex 0.114704 -0.0259282 -0.0050134
  endloop
 endfacet
 facet normal -1 0 0
  outer loop
   vertex 0.114704 -0.0255654 -0.0066369
   vertex 0.114704 -0.0257596 -0.005828
   vertex 0.114704 -0.0259282 -0.0050134
  endloop
 endfacet
 facet normal -1 0 0
  outer loop
   vertex 0.114704 -0.0260713 -0.0041939
   vertex 0.114704 -0.0263972 -5.14e-05
   vertex 0.114704 -0.0259282 -0.0050134
  endloop
 endfacet
 facet normal -1 0 0
  outer loop
   vertex 0.114704 -0.0260713 0.0040911
   vertex 0.114704 -0.0263972 -5.14e-05
   vertex 0.114704 -0.0262798 0.0024407
  endloop
 endfacet
 facet normal -1 -0 0
  outer loop
   vertex 0.114704 0.0260954 -0.0050134
   vertex 0.114704 0.0257325 -0.0066369
   vertex 0.114704 0.0262384 -0.0041939
  endloop
 endfacet
 facet normal -1 0 0
  outer loop
   vertex 0.114704 -0.0260713 -0.0041939
   vertex 0.114704 -0.0261885 -0.0033703
   vertex 0.114704 -0.0262798 -0.0025435
  endloop
 endfacet
 facet normal -1 0 0
  outer loop
   vertex 0.114704 -0.0263972 -5.14e-05
   vertex 0.114704 -0.0260713 -0.0041939
   vertex 0.114704 -0.0262798 -0.0025435
  endloop
 endfacet
 facet normal -1 0 0
  outer loop
   vertex 0.114704 -0.0263972 -5.14e-05
   vertex 0.114704 0.0262384 0.0040911
   vertex 0.114704 0.0262384 -0.0041939
  endloop
 endfacet
 facet normal -1 -0 -0
  outer loop
   vertex 0.114704 0.0082666 0.0251334
   vertex 0.114704 0.0090536 0.0248639
   vertex 0.114704 0.0074715 0.025378
  endloop
 endfacet
 facet normal -1 -0 0
  outer loop
   vertex 0.114704 0.0264469 -0.0025435
   vertex 0.114704 0.0262384 -0.0041939
   vertex 0.114704 0.0265644 -5.14e-05
  endloop
 endfacet
 facet normal -1 0 0
  outer loop
   vertex 0.114704 -0.0263972 -5.14e-05
   vertex 0.114704 -0.0262798 -0.0025435
   vertex 0.114704 -0.0263842 -0.0008832
  endloop
 endfacet
 facet normal -1 -0 0
  outer loop
   vertex 0.114704 0.0265122 -0.0017141
   vertex 0.114704 0.0264469 -0.0025435
   vertex 0.114704 0.0265644 -5.14e-05
  endloop
 endfacet
 facet normal -1 0 0
  outer loop
   vertex 0.114704 0.0240441 -0.0113264
   vertex 0.114704 0.0228767 -0.0135312
   vertex 0.114704 0.0204874 -0.0169309
  endloop
 endfacet
 facet normal -1 -0 0
  outer loop
   vertex 0.114704 0.0265514 -0.0008832
   vertex 0.114704 0.0265122 -0.0017141
   vertex 0.114704 0.0265644 -5.14e-05
  endloop
 endfacet
 facet normal -1 0 0
  outer loop
   vertex 0.114704 0.0265122 0.0016114
   vertex 0.114704 0.0265514 0.0007804
   vertex 0.114704 0.0265644 -5.14e-05
  endloop
 endfacet
 facet normal -1 0 -0
  outer loop
   vertex 0.114704 -0.0263451 0.0016114
   vertex 0.114704 -0.0262798 0.0024407
   vertex 0.114704 -0.0263842 0.0007804
  endloop
 endfacet
 facet normal -1 0 0
  outer loop
   vertex 0.114704 0.0262384 -0.0041939
   vertex 0.114704 0.0262384 0.0040911
   vertex 0.114704 0.0265644 -5.14e-05
  endloop
 endfacet
 facet normal -1 0 0
  outer loop
   vertex 0.114704 0.0264469 0.0024407
   vertex 0.114704 0.0265122 0.0016114
   vertex 0.114704 0.0265644 -5.14e-05
  endloop
 endfacet
 facet normal -1 0 -0
  outer loop
   vertex 0.114704 -0.0261885 0.0032676
   vertex 0.114704 -0.0260713 0.0040911
   vertex 0.114704 -0.0262798 0.0024407
  endloop
 endfacet
 facet normal -1 0 0
  outer loop
   vertex 0.114704 -0.0262798 0.0024407
   vertex 0.114704 -0.0263972 -5.14e-05
   vertex 0.114704 -0.0263842 0.0007804
  endloop
 endfacet
 facet normal -1 0 0
  outer loop
   vertex 0.114704 0.0262384 0.0040911
   vertex 0.114704 0.0263556 0.0032676
   vertex 0.114704 0.0264469 0.0024407
  endloop
 endfacet
 facet normal -1 0 0
  outer loop
   vertex 0.114704 0.0262384 0.0040911
   vertex 0.114704 0.0264469 0.0024407
   vertex 0.114704 0.0265644 -5.14e-05
  endloop
 endfacet
 facet normal -1 0 0
  outer loop
   vertex 0.114704 -0.0263972 -5.14e-05
   vertex 0.114704 -0.0260713 0.0040911
   vertex 0.114704 -0.0259282 0.0049106
  endloop
 endfacet
 facet normal -1 -0 0
  outer loop
   vertex 0.114704 0.0034025 -0.0263234
   vertex 0.114704 0.0025756 -0.0264147
   vertex 0.114704 0.0058602 -0.0258945
  endloop
 endfacet
 facet normal -1 0 -0
  outer loop
   vertex 0.114704 -0.0257596 0.0057252
   vertex 0.114704 -0.0255654 0.0065341
   vertex 0.114704 -0.0259282 0.0049106
  endloop
 endfacet
 facet normal -1 0 0
  outer loop
   vertex 0.114704 0.0262384 0.0040911
   vertex 0.114704 8.36e-05 0.0264294
   vertex 0.114704 0.0199471 0.0174607
  endloop
 endfacet
 facet normal -1 0 0
  outer loop
   vertex 0.114704 0.0257325 0.0065341
   vertex 0.114704 0.0259267 0.0057252
   vertex 0.114704 0.0260954 0.0049106
  endloop
 endfacet
 facet normal -1 -0 -0
  outer loop
   vertex 0.114704 0.021507 0.0155137
   vertex 0.114704 0.0224421 0.0141378
   vertex 0.114704 0.0199471 0.0174607
  endloop
 endfacet
 facet normal -1 0 0
  outer loop
   vertex 0.114704 0.0257325 0.0065341
   vertex 0.114704 0.0224421 0.0141378
   vertex 0.114704 0.0249989 0.0089187
  endloop
 endfacet
 facet normal -1 0 0
  outer loop
   vertex 0.114704 -0.0263972 -5.14e-05
   vertex 0.114704 -0.0255654 0.0065341
   vertex 0.114704 -0.0251012 0.0081317
  endloop
 endfacet
 facet normal -1 0 -0
  outer loop
   vertex 0.114704 -0.0253458 0.0073365
   vertex 0.114704 -0.0251012 0.0081317
   vertex 0.114704 -0.0255654 0.0065341
  endloop
 endfacet
 facet normal -1 0 0
  outer loop
   vertex 0.114704 -0.0141056 0.0223071
   vertex 0.114704 -0.0119385 0.0235432
   vertex 0.114704 8.36e-05 0.0264294
  endloop
 endfacet
 facet normal -1 0 0
  outer loop
   vertex 0.114704 -0.0245377 0.0096969
   vertex 0.114704 -0.0263972 -5.14e-05
   vertex 0.114704 -0.0251012 0.0081317
  endloop
 endfacet
 facet normal -1 0 0
  outer loop
   vertex 0.114704 0.0257325 0.0065341
   vertex 0.114704 0.0249989 0.0089187
   vertex 0.114704 0.025513 0.0073365
  endloop
 endfacet
 facet normal -1 0 0
  outer loop
   vertex 0.114704 0.0249989 0.0089187
   vertex 0.114704 0.0252684 0.0081317
   vertex 0.114704 0.025513 0.0073365
  endloop
 endfacet
 facet normal -1 0 0
  outer loop
   vertex 0.114704 0.0257325 0.0065341
   vertex 0.114704 0.0260954 0.0049106
   vertex 0.114704 0.0262384 0.0040911
  endloop
 endfacet
 facet normal -1 0 0
  outer loop
   vertex 0.114704 -0.0263972 -5.14e-05
   vertex 0.114704 -0.022275 0.0141378
   vertex 0.114704 -0.01978 0.0174607
  endloop
 endfacet
 facet normal -1 0 -0
  outer loop
   vertex 0.114704 -0.0231218 0.0127059
   vertex 0.114704 -0.0227096 0.0134285
   vertex 0.114704 -0.023877 0.0112236
  endloop
 endfacet
 facet normal -1 0 0
  outer loop
   vertex 0.114704 0.0243865 0.0104654
   vertex 0.114704 0.0247048 0.0096969
   vertex 0.114704 0.0249989 0.0089187
  endloop
 endfacet
 facet normal -1 0 0
  outer loop
   vertex 0.114704 -0.0245377 0.0096969
   vertex 0.114704 -0.0242194 0.0104654
   vertex 0.114704 -0.023877 0.0112236
  endloop
 endfacet
 facet normal -1 0 0
  outer loop
   vertex 0.114704 0.0240441 0.0112236
   vertex 0.114704 0.0243865 0.0104654
   vertex 0.114704 0.0249989 0.0089187
  endloop
 endfacet
 facet normal -1 0 -0
  outer loop
   vertex 0.114704 -0.0235111 0.0119707
   vertex 0.114704 -0.0231218 0.0127059
   vertex 0.114704 -0.023877 0.0112236
  endloop
 endfacet
 facet normal -1 0 0
  outer loop
   vertex 0.114704 0.0257325 -0.0066369
   vertex 0.114704 0.0249989 -0.0090214
   vertex 0.114704 0.0240441 -0.0113264
  endloop
 endfacet
 facet normal -1 0 0
  outer loop
   vertex 0.114704 0.0228767 0.0134285
   vertex 0.114704 0.0232889 0.0127059
   vertex 0.114704 0.0240441 0.0112236
  endloop
 endfacet
 facet normal -1 0 -0
  outer loop
   vertex 0.114704 -0.0227096 0.0134285
   vertex 0.114704 -0.022275 0.0141378
   vertex 0.114704 -0.0245377 0.0096969
  endloop
 endfacet
 facet normal -1 -0 -0
  outer loop
   vertex 0.114704 0.0236782 0.0119707
   vertex 0.114704 0.0240441 0.0112236
   vertex 0.114704 0.0232889 0.0127059
  endloop
 endfacet
 facet normal -1 0 0
  outer loop
   vertex 0.114704 -0.0056931 -0.0258945
   vertex 0.114704 -0.0073044 -0.0254808
   vertex 0.114704 -0.0088865 -0.0249667
  endloop
 endfacet
 facet normal -1 0 0
  outer loop
   vertex 0.114704 -0.022275 0.0141378
   vertex 0.114704 -0.0263972 -5.14e-05
   vertex 0.114704 -0.0245377 0.0096969
  endloop
 endfacet
 facet normal -1 0 0
  outer loop
   vertex 0.114704 -0.0227096 0.0134285
   vertex 0.114704 -0.0245377 0.0096969
   vertex 0.114704 -0.023877 0.0112236
  endloop
 endfacet
 facet normal -1 -0 0
  outer loop
   vertex 0.114704 0.0262384 0.0040911
   vertex 0.114704 -0.0263972 -5.14e-05
   vertex 0.114704 8.36e-05 0.0264294
  endloop
 endfacet
 facet normal -1 0 -0
  outer loop
   vertex 0.114704 -0.0218183 0.0148331
   vertex 0.114704 -0.0213399 0.0155137
   vertex 0.114704 -0.022275 0.0141378
  endloop
 endfacet
 facet normal -1 0 0
  outer loop
   vertex 0.114704 0.0224421 0.0141378
   vertex 0.114704 0.0228767 0.0134285
   vertex 0.114704 0.0240441 0.0112236
  endloop
 endfacet
 facet normal -1 0 -0
  outer loop
   vertex 0.114704 -0.0213399 0.0155137
   vertex 0.114704 -0.01978 0.0174607
   vertex 0.114704 -0.022275 0.0141378
  endloop
 endfacet
 facet normal -1 -0 -0
  outer loop
   vertex 0.114704 0.0219854 0.0148331
   vertex 0.114704 0.0224421 0.0141378
   vertex 0.114704 0.021507 0.0155137
  endloop
 endfacet
 facet normal -1 0 -0
  outer loop
   vertex 0.114704 -0.0208404 0.0161789
   vertex 0.114704 -0.01978 0.0174607
   vertex 0.114704 -0.0213399 0.0155137
  endloop
 endfacet
 facet normal -1 0 0
  outer loop
   vertex 0.114704 -0.0263972 -5.14e-05
   vertex 0.114704 0.0204874 -0.0169309
   vertex 0.114704 0.0156486 -0.0214748
  endloop
 endfacet
 facet normal -1 0 -0
  outer loop
   vertex 0.114704 -0.0203203 0.0168282
   vertex 0.114704 -0.01978 0.0174607
   vertex 0.114704 -0.0208404 0.0161789
  endloop
 endfacet
 facet normal -1 0 0
  outer loop
   vertex 0.114704 0.0142727 -0.0224099
   vertex 0.114704 0.0128408 -0.0232567
   vertex 0.114704 0.0106004 -0.0243543
  endloop
 endfacet
 facet normal -1 -0 -0
  outer loop
   vertex 0.114704 0.0210075 0.0161789
   vertex 0.114704 0.021507 0.0155137
   vertex 0.114704 0.0199471 0.0174607
  endloop
 endfacet
 facet normal -1 -0 -0
  outer loop
   vertex 0.114704 0.0204874 0.0168282
   vertex 0.114704 0.0210075 0.0161789
   vertex 0.114704 0.0199471 0.0174607
  endloop
 endfacet
 facet normal -1 0 -0
  outer loop
   vertex 0.114704 -0.0192202 0.018076
   vertex 0.114704 -0.0186412 0.0186734
   vertex 0.114704 -0.01978 0.0174607
  endloop
 endfacet
 facet normal -1 -0 -0
  outer loop
   vertex 0.114704 0.0224421 0.0141378
   vertex 0.114704 0.0262384 0.0040911
   vertex 0.114704 0.0199471 0.0174607
  endloop
 endfacet
 facet normal -1 0 -0
  outer loop
   vertex 0.114704 -0.0186412 0.0186734
   vertex 0.114704 -0.0180438 0.0192523
   vertex 0.114704 -0.01978 0.0174607
  endloop
 endfacet
 facet normal -1 -0 -0
  outer loop
   vertex 0.114704 0.0193873 0.018076
   vertex 0.114704 0.0199471 0.0174607
   vertex 0.114704 0.0188084 0.0186734
  endloop
 endfacet
 facet normal -1 0 0
  outer loop
   vertex 0.114704 -0.0263972 -5.14e-05
   vertex 0.114704 -0.01978 0.0174607
   vertex 0.114704 -0.0148009 0.0218504
  endloop
 endfacet
 facet normal -1 -0 -0
  outer loop
   vertex 0.114704 0.0188084 0.0186734
   vertex 0.114704 0.0199471 0.0174607
   vertex 0.114704 0.0182109 0.0192523
  endloop
 endfacet
 facet normal -1 0 -0
  outer loop
   vertex 0.114704 -0.0174286 0.0198122
   vertex 0.114704 -0.016796 0.0203525
   vertex 0.114704 -0.0180438 0.0192523
  endloop
 endfacet
 facet normal -1 0 0
  outer loop
   vertex 0.114704 -0.0119385 0.0235432
   vertex 0.114704 -0.0104333 0.0242515
   vertex 0.114704 -0.0088865 0.0248639
  endloop
 endfacet
 facet normal -1 0 0
  outer loop
   vertex 0.114704 -0.0141056 0.0223071
   vertex 0.114704 -0.0263972 -5.14e-05
   vertex 0.114704 -0.0148009 0.0218504
  endloop
 endfacet
 facet normal -1 -0 -0
  outer loop
   vertex 0.114704 0.0175957 0.0198122
   vertex 0.114704 0.0182109 0.0192523
   vertex 0.114704 0.0169631 0.0203525
  endloop
 endfacet
 facet normal -1 0 -0
  outer loop
   vertex 0.114704 -0.0161468 0.0208726
   vertex 0.114704 -0.0148009 0.0218504
   vertex 0.114704 -0.016796 0.0203525
  endloop
 endfacet
 facet normal -1 -0 -0
  outer loop
   vertex 0.114704 0.0169631 0.0203525
   vertex 0.114704 0.0182109 0.0192523
   vertex 0.114704 0.014968 0.0218504
  endloop
 endfacet
 facet normal -1 0 -0
  outer loop
   vertex 0.114704 -0.0154815 0.0213721
   vertex 0.114704 -0.0148009 0.0218504
   vertex 0.114704 -0.0161468 0.0208726
  endloop
 endfacet
 facet normal -1 -0 0
  outer loop
   vertex 0.114704 0.021507 -0.0156164
   vertex 0.114704 0.0204874 -0.0169309
   vertex 0.114704 0.0224421 -0.0142405
  endloop
 endfacet
 facet normal -1 -0 -0
  outer loop
   vertex 0.114704 0.0163139 0.0208726
   vertex 0.114704 0.0169631 0.0203525
   vertex 0.114704 0.014968 0.0218504
  endloop
 endfacet
 facet normal -1 -0 -0
  outer loop
   vertex 0.114704 0.0156486 0.0213721
   vertex 0.114704 0.0163139 0.0208726
   vertex 0.114704 0.014968 0.0218504
  endloop
 endfacet
 facet normal -1 0 0
  outer loop
   vertex 0.114704 8.36e-05 0.0264294
   vertex 0.114704 -0.0263972 -5.14e-05
   vertex 0.114704 -0.0141056 0.0223071
  endloop
 endfacet
 facet normal -1 0 0
  outer loop
   vertex 0.114704 0.0142727 0.0223071
   vertex 0.114704 8.36e-05 0.0264294
   vertex 0.114704 0.0090536 0.0248639
  endloop
 endfacet
 facet normal -1 0 -0
  outer loop
   vertex 0.114704 -0.0133963 0.0227418
   vertex 0.114704 -0.0126737 0.023154
   vertex 0.114704 -0.0141056 0.0223071
  endloop
 endfacet
 facet normal -1 -0 -0
  outer loop
   vertex 0.114704 0.0182109 0.0192523
   vertex 0.114704 0.0199471 0.0174607
   vertex 0.114704 0.014968 0.0218504
  endloop
 endfacet
 facet normal -1 0 -0
  outer loop
   vertex 0.114704 -0.0126737 0.023154
   vertex 0.114704 -0.0119385 0.0235432
   vertex 0.114704 -0.0141056 0.0223071
  endloop
 endfacet
 facet normal -1 -0 -0
  outer loop
   vertex 0.114704 0.0135634 0.0227418
   vertex 0.114704 0.0142727 0.0223071
   vertex 0.114704 0.0128408 0.023154
  endloop
 endfacet
 facet normal -1 0 0
  outer loop
   vertex 0.114704 8.36e-05 0.0264294
   vertex 0.114704 0.0142727 0.0223071
   vertex 0.114704 0.014968 0.0218504
  endloop
 endfacet
 facet normal -1 0 0
  outer loop
   vertex 0.114704 0.0142727 0.0223071
   vertex 0.114704 0.0090536 0.0248639
   vertex 0.114704 0.0106004 0.0242515
  endloop
 endfacet
 facet normal -1 0 -0
  outer loop
   vertex 0.114704 -0.0111914 0.0239092
   vertex 0.114704 -0.0104333 0.0242515
   vertex 0.114704 -0.0119385 0.0235432
  endloop
 endfacet
 facet normal -1 0 0
  outer loop
   vertex 0.114704 -0.0088865 0.0248639
   vertex 0.114704 -0.0073044 0.025378
   vertex 0.114704 -0.0056931 0.0257917
  endloop
 endfacet
 facet normal -1 0 0
  outer loop
   vertex 0.114704 0.0257325 -0.0066369
   vertex 0.114704 0.0240441 -0.0113264
   vertex 0.114704 0.0204874 -0.0169309
  endloop
 endfacet
 facet normal -1 -0 -0
  outer loop
   vertex 0.114704 0.0113585 0.0239092
   vertex 0.114704 0.0121056 0.0235432
   vertex 0.114704 0.0106004 0.0242515
  endloop
 endfacet
 facet normal -1 0 -0
  outer loop
   vertex 0.114704 -0.0096647 0.0245699
   vertex 0.114704 -0.0088865 0.0248639
   vertex 0.114704 -0.0104333 0.0242515
  endloop
 endfacet
 facet normal -1 -0 -0
  outer loop
   vertex 0.114704 0.0121056 0.0235432
   vertex 0.114704 0.0128408 0.023154
   vertex 0.114704 0.0106004 0.0242515
  endloop
 endfacet
 facet normal -1 0 0
  outer loop
   vertex 0.114704 8.36e-05 0.0264294
   vertex 0.114704 -0.0119385 0.0235432
   vertex 0.114704 -0.0088865 0.0248639
  endloop
 endfacet
 facet normal -1 -0 -0
  outer loop
   vertex 0.114704 0.0098318 0.0245699
   vertex 0.114704 0.0106004 0.0242515
   vertex 0.114704 0.0090536 0.0248639
  endloop
 endfacet
 facet normal -1 0 0
  outer loop
   vertex 0.114704 0.0090536 0.0248639
   vertex 0.114704 8.36e-05 0.0264294
   vertex 0.114704 0.0074715 0.025378
  endloop
 endfacet
 facet normal -1 0 0
  outer loop
   vertex 0.114704 -0.0088865 0.0248639
   vertex 0.114704 -0.0080995 0.0251334
   vertex 0.114704 -0.0073044 0.025378
  endloop
 endfacet
 facet normal -1 0 0
  outer loop
   vertex 0.114704 -0.0154815 -0.0214748
   vertex 0.114704 -0.0161468 -0.0209754
   vertex 0.114704 -0.0180438 -0.0193551
  endloop
 endfacet
 facet normal -1 -0 0
  outer loop
   vertex 0.114704 0.0263556 -0.0033703
   vertex 0.114704 0.0262384 -0.0041939
   vertex 0.114704 0.0264469 -0.0025435
  endloop
 endfacet
 facet normal -1 0 -0
  outer loop
   vertex 0.114704 -0.006502 0.0255975
   vertex 0.114704 -0.0056931 0.0257917
   vertex 0.114704 -0.0073044 0.025378
  endloop
 endfacet
 facet normal -1 -0 -0
  outer loop
   vertex 0.114704 0.0128408 0.023154
   vertex 0.114704 0.0142727 0.0223071
   vertex 0.114704 0.0106004 0.0242515
  endloop
 endfacet
 facet normal -1 -0 -0
  outer loop
   vertex 0.114704 0.0066691 0.0255975
   vertex 0.114704 0.0074715 0.025378
   vertex 0.114704 0.0058602 0.0257917
  endloop
 endfacet
 facet normal -1 0 0
  outer loop
   vertex 0.114704 -0.0056931 0.0257917
   vertex 0.114704 -0.004059 0.0261035
   vertex 0.114704 -0.0032354 0.0262207
  endloop
 endfacet
 facet normal -1 0 0
  outer loop
   vertex 0.114704 8.36e-05 0.0264294
   vertex 0.114704 -0.0088865 0.0248639
   vertex 0.114704 -0.0056931 0.0257917
  endloop
 endfacet
 facet normal -1 0 0
  outer loop
   vertex 0.114704 0.0058602 0.0257917
   vertex 0.114704 8.36e-05 0.0264294
   vertex 0.114704 0.0034025 0.0262207
  endloop
 endfacet
 facet normal -1 0 0
  outer loop
   vertex 0.114704 -0.0056931 0.0257917
   vertex 0.114704 -0.0048785 0.0259604
   vertex 0.114704 -0.004059 0.0261035
  endloop
 endfacet
 facet normal -1 0 0
  outer loop
   vertex 0.114704 8.36e-05 0.0264294
   vertex 0.114704 -0.0056931 0.0257917
   vertex 0.114704 -0.0032354 0.0262207
  endloop
 endfacet
 facet normal -1 -0 -0
  outer loop
   vertex 0.114704 0.0050456 0.0259604
   vertex 0.114704 0.0058602 0.0257917
   vertex 0.114704 0.0042261 0.0261035
  endloop
 endfacet
 facet normal -1 0 -0
  outer loop
   vertex 0.114704 -0.0024085 0.0263119
   vertex 0.114704 8.36e-05 0.0264294
   vertex 0.114704 -0.0032354 0.0262207
  endloop
 endfacet
 facet normal -1 0 0
  outer loop
   vertex 0.114704 8.36e-05 -0.0265322
   vertex 0.114704 -0.0015792 -0.02648
   vertex 0.114704 -0.0024085 -0.0264147
  endloop
 endfacet
 facet normal -1 0 -0
  outer loop
   vertex 0.114704 -0.0015792 0.0263772
   vertex 0.114704 8.36e-05 0.0264294
   vertex 0.114704 -0.0024085 0.0263119
  endloop
 endfacet
 facet normal -1 0 0
  outer loop
   vertex 0.114704 8.36e-05 0.0264294
   vertex 0.114704 0.0025756 0.0263119
   vertex 0.114704 0.0034025 0.0262207
  endloop
 endfacet
 facet normal -1 0 -0
  outer loop
   vertex 0.114704 -0.0007482 0.0264165
   vertex 0.114704 8.36e-05 0.0264294
   vertex 0.114704 -0.0015792 0.0263772
  endloop
 endfacet
 facet normal -1 0 0
  outer loop
   vertex 0.114704 8.36e-05 0.0264294
   vertex 0.114704 0.0017463 0.0263772
   vertex 0.114704 0.0025756 0.0263119
  endloop
 endfacet
 facet normal -1 -0 -0
  outer loop
   vertex 0.114704 0.0058602 0.0257917
   vertex 0.114704 0.0074715 0.025378
   vertex 0.114704 8.36e-05 0.0264294
  endloop
 endfacet
 facet normal -1 0 0
  outer loop
   vertex 0.114704 8.36e-05 0.0264294
   vertex 0.114704 0.0009153 0.0264165
   vertex 0.114704 0.0017463 0.0263772
  endloop
 endfacet
endsolid ExportedfromBlender-3.1.2
