solid ExportedfromBlender-3.1.2
 facet normal 0.000715977 -0.996914 -0.078498
  outer loop
   vertex -4.15e-05 0.000263572 2.4958e-05
   vertex -4.15e-05 0.000264225 1.6665e-05
   vertex 0.00114704 0.000265122 1.6114e-05
  endloop
 endfacet
 facet normal 0.000715977 -0.996914 -0.078498
  outer loop
   vertex -4.15e-05 0.000263572 2.4958e-05
   vertex 0.00114704 0.000265122 1.6114e-05
   vertex 0.00114704 0.000264469 2.4407e-05
  endloop
 endfacet
 facet normal -0.000869834 0.935467 -0.353414
  outer loop
   vertex -4.15e-05 -0.000249214 8.9738e-05
   vertex -4.15e-05 -0.000246274 9.752e-05
   vertex 0.00114704 -0.000245377 9.6969e-05
  endloop
 endfacet
 facet normal -0.000869065 0.935427 -0.353519
  outer loop
   vertex -4.15e-05 -0.000249214 8.9738e-05
   vertex 0.00114704 -0.000245377 9.6969e-05
   vertex 0.00114704 -0.000248318 8.9187e-05
  endloop
 endfacet
 facet normal 0.000403025 0.0783805 0.996923
  outer loop
   vertex -4.15e-05 -1.6689e-05 -0.000264248
   vertex -4.15e-05 -2.4982e-05 -0.000263596
   vertex 0.00114704 -2.4085e-05 -0.000264147
  endloop
 endfacet
 facet normal 0.000403757 0.078498 0.996914
  outer loop
   vertex -4.15e-05 -1.6689e-05 -0.000264248
   vertex 0.00114704 -2.4085e-05 -0.000264147
   vertex 0.00114704 -1.5792e-05 -0.0002648
  endloop
 endfacet
 facet normal 0.000325265 -0.799754 -0.600328
  outer loop
   vertex -4.15e-05 0.000209179 0.000162341
   vertex -4.15e-05 0.000214173 0.000155688
   vertex 0.00114704 0.00021507 0.000155137
  endloop
 endfacet
 facet normal 0.000323961 -0.799654 -0.600461
  outer loop
   vertex -4.15e-05 0.000209179 0.000162341
   vertex 0.00114704 0.00021507 0.000155137
   vertex 0.00114704 0.000210075 0.000161789
  endloop
 endfacet
 facet normal 0.00011015 -0.62531 -0.780376
  outer loop
   vertex -4.15e-05 0.000162242 0.000209278
   vertex -4.15e-05 0.000168734 0.000204076
   vertex 0.00114704 0.000169631 0.000203525
  endloop
 endfacet
 facet normal 0.000109413 -0.625237 -0.780435
  outer loop
   vertex -4.15e-05 0.000162242 0.000209278
   vertex 0.00114704 0.000169631 0.000203525
   vertex 0.00114704 0.000163139 0.000208726
  endloop
 endfacet
 facet normal 0.000244982 -0.739618 -0.673027
  outer loop
   vertex -4.15e-05 0.000192976 0.000181312
   vertex -4.15e-05 0.000198575 0.000175159
   vertex 0.00114704 0.000199471 0.000174607
  endloop
 endfacet
 facet normal 0.000245699 -0.739679 -0.672959
  outer loop
   vertex -4.15e-05 0.000192976 0.000181312
   vertex 0.00114704 0.000199471 0.000174607
   vertex 0.00114704 0.000193873 0.00018076
  endloop
 endfacet
 facet normal 0.000163861 -0.673025 -0.73962
  outer loop
   vertex -4.15e-05 0.00017506 0.000198674
   vertex -4.15e-05 0.000181213 0.000193075
   vertex 0.00114704 0.000182109 0.000192523
  endloop
 endfacet
 facet normal 0.000164497 -0.673085 -0.739565
  outer loop
   vertex -4.15e-05 0.00017506 0.000198674
   vertex 0.00114704 0.000182109 0.000192523
   vertex 0.00114704 0.000175957 0.000198122
  endloop
 endfacet
 facet normal 0.000878836 -0.780376 0.62531
  outer loop
   vertex -4.15e-05 0.000209179 -0.000162266
   vertex -4.15e-05 0.000203977 -0.000168758
   vertex 0.00114704 0.000204874 -0.000169309
  endloop
 endfacet
 facet normal 0.000878201 -0.780434 0.625238
  outer loop
   vertex -4.15e-05 0.000209179 -0.000162266
   vertex 0.00114704 0.000204874 -0.000169309
   vertex 0.00114704 0.000210075 -0.000162817
  endloop
 endfacet
 facet normal -0.000833834 0.625311 -0.780375
  outer loop
   vertex -4.15e-05 -0.000168856 0.000204076
   vertex -4.15e-05 -0.000162364 0.000209278
   vertex 0.00114704 -0.000161468 0.000208726
  endloop
 endfacet
 facet normal -0.000833143 0.625237 -0.780435
  outer loop
   vertex -4.15e-05 -0.000168856 0.000204076
   vertex 0.00114704 -0.000161468 0.000208726
   vertex 0.00114704 -0.00016796 0.000203525
  endloop
 endfacet
 facet normal -0.000563804 0.946067 0.32397
  outer loop
   vertex -4.15e-05 -0.000249214 -8.9663e-05
   vertex -4.15e-05 -0.000251909 -8.1793e-05
   vertex 0.00114704 -0.000251012 -8.2344e-05
  endloop
 endfacet
 facet normal -0.000563086 0.946104 0.323863
  outer loop
   vertex -4.15e-05 -0.000249214 -8.9663e-05
   vertex 0.00114704 -0.000251012 -8.2344e-05
   vertex 0.00114704 -0.000248318 -9.0214e-05
  endloop
 endfacet
 facet normal 0.000663627 -0.985114 -0.1719
  outer loop
   vertex -4.15e-05 0.000260057 4.9658e-05
   vertex -4.15e-05 0.000261487 4.1463e-05
   vertex 0.00114704 0.000262384 4.0911e-05
  endloop
 endfacet
 facet normal 0.000663627 -0.985114 -0.1719
  outer loop
   vertex -4.15e-05 0.000260057 4.9658e-05
   vertex 0.00114704 0.000262384 4.0911e-05
   vertex 0.00114704 0.000260954 4.9106e-05
  endloop
 endfacet
 facet normal 0.000297887 -0.780376 -0.62531
  outer loop
   vertex -4.15e-05 0.000203977 0.000168833
   vertex -4.15e-05 0.000209179 0.000162341
   vertex 0.00114704 0.000210075 0.000161789
  endloop
 endfacet
 facet normal 0.000299198 -0.780481 -0.625179
  outer loop
   vertex -4.15e-05 0.000203977 0.000168833
   vertex 0.00114704 0.000210075 0.000161789
   vertex 0.00114704 0.000204874 0.000168282
  endloop
 endfacet
 facet normal 0.000301806 0.202908 0.979198
  outer loop
   vertex -4.15e-05 -4.9681e-05 -0.000260081
   vertex -4.15e-05 -5.7827e-05 -0.000258393
   vertex 0.00114704 -5.6931e-05 -0.000258945
  endloop
 endfacet
 facet normal 0.000301093 0.202795 0.979221
  outer loop
   vertex -4.15e-05 -4.9681e-05 -0.000260081
   vertex 0.00114704 -5.6931e-05 -0.000258945
   vertex 0.00114704 -4.8785e-05 -0.000260632
  endloop
 endfacet
 facet normal 0.000748676 -0.439841 0.898075
  outer loop
   vertex -4.15e-05 0.00012016 -0.000235909
   vertex -4.15e-05 0.000112689 -0.000239568
   vertex 0.00114704 0.000113585 -0.00024012
  endloop
 endfacet
 facet normal 0.000747972 -0.439938 0.898028
  outer loop
   vertex -4.15e-05 0.00012016 -0.000235909
   vertex 0.00114704 0.000113585 -0.00024012
   vertex 0.00114704 0.000121056 -0.00023646
  endloop
 endfacet
 facet normal 0.000747371 -0.999878 -0.0156284
  outer loop
   vertex -4.15e-05 0.000264617 8.355e-06
   vertex -4.15e-05 0.000264747 3.8e-08
   vertex 0.00114704 0.000265644 -5.14e-07
  endloop
 endfacet
 facet normal 0.000747358 -0.999878 -0.0156302
  outer loop
   vertex -4.15e-05 0.000264617 8.355e-06
   vertex 0.00114704 0.000265644 -5.14e-07
   vertex 0.00114704 0.000265514 7.804e-06
  endloop
 endfacet
 facet normal 0.000428356 0.0471185 0.998889
  outer loop
   vertex -4.15e-05 -8.379e-06 -0.00026464
   vertex -4.15e-05 -1.6689e-05 -0.000264248
   vertex 0.00114704 -1.5792e-05 -0.0002648
  endloop
 endfacet
 facet normal 0.000428356 0.0471185 0.998889
  outer loop
   vertex -4.15e-05 -8.379e-06 -0.00026464
   vertex 0.00114704 -1.5792e-05 -0.0002648
   vertex 0.00114704 -7.482e-06 -0.000265192
  endloop
 endfacet
 facet normal -0.00027542 -0.233443 -0.97237
  outer loop
   vertex -4.15e-05 5.7705e-05 0.000258469
   vertex -4.15e-05 6.5794e-05 0.000256527
   vertex 0.00114704 6.6691e-05 0.000255975
  endloop
 endfacet
 facet normal -0.000275419 -0.233443 -0.97237
  outer loop
   vertex -4.15e-05 5.7705e-05 0.000258469
   vertex 0.00114704 6.6691e-05 0.000255975
   vertex 0.00114704 5.8602e-05 0.000257917
  endloop
 endfacet
 facet normal 0.00062771 -0.233332 0.972397
  outer loop
   vertex -4.15e-05 6.5794e-05 -0.000256452
   vertex -4.15e-05 5.7705e-05 -0.000258393
   vertex 0.00114704 5.8602e-05 -0.000258945
  endloop
 endfacet
 facet normal 0.000626976 -0.233443 0.97237
  outer loop
   vertex -4.15e-05 6.5794e-05 -0.000256452
   vertex 0.00114704 5.8602e-05 -0.000258945
   vertex 0.00114704 6.6691e-05 -0.000257003
  endloop
 endfacet
 facet normal -0.000863387 0.946067 -0.32397
  outer loop
   vertex -4.15e-05 -0.000251909 8.1868e-05
   vertex -4.15e-05 -0.000249214 8.9738e-05
   vertex 0.00114704 -0.000248318 8.9187e-05
  endloop
 endfacet
 facet normal -0.000864162 0.946104 -0.323863
  outer loop
   vertex -4.15e-05 -0.000251909 8.1868e-05
   vertex 0.00114704 -0.000248318 8.9187e-05
   vertex 0.00114704 -0.000251012 8.1317e-05
  endloop
 endfacet
 facet normal 0.000625424 -0.972369 -0.233447
  outer loop
   vertex -4.15e-05 0.000256428 6.5893e-05
   vertex -4.15e-05 0.00025837 5.7804e-05
   vertex 0.00114704 0.000259267 5.7252e-05
  endloop
 endfacet
 facet normal 0.000625424 -0.972369 -0.233447
  outer loop
   vertex -4.15e-05 0.000256428 6.5893e-05
   vertex 0.00114704 0.000259267 5.7252e-05
   vertex 0.00114704 0.000257325 6.5341e-05
  endloop
 endfacet
 facet normal -0.000191659 0.695901 0.718138
  outer loop
   vertex -4.15e-05 -0.000181335 -0.000192999
   vertex -4.15e-05 -0.000187309 -0.00018721
   vertex 0.00114704 -0.000186412 -0.000187762
  endloop
 endfacet
 facet normal -0.000191674 0.695899 0.71814
  outer loop
   vertex -4.15e-05 -0.000181335 -0.000192999
   vertex 0.00114704 -0.000186412 -0.000187762
   vertex 0.00114704 -0.000180438 -0.000193551
  endloop
 endfacet
 facet normal -0.000749097 0.439939 -0.898027
  outer loop
   vertex -4.15e-05 -0.000120282 0.000235984
   vertex -4.15e-05 -0.000112811 0.000239644
   vertex 0.00114704 -0.000111914 0.000239092
  endloop
 endfacet
 facet normal -0.0007491 0.43994 -0.898027
  outer loop
   vertex -4.15e-05 -0.000120282 0.000235984
   vertex 0.00114704 -0.000111914 0.000239092
   vertex 0.00114704 -0.000119385 0.000235432
  endloop
 endfacet
 facet normal -0.000857648 0.955793 -0.294038
  outer loop
   vertex -4.15e-05 -0.000254355 7.3917e-05
   vertex -4.15e-05 -0.000251909 8.1868e-05
   vertex 0.00114704 -0.000251012 8.1317e-05
  endloop
 endfacet
 facet normal -0.00085791 0.955805 -0.294001
  outer loop
   vertex -4.15e-05 -0.000254355 7.3917e-05
   vertex 0.00114704 -0.000251012 8.1317e-05
   vertex 0.00114704 -0.000253458 7.3365e-05
  endloop
 endfacet
 facet normal 0.000605406 -0.964561 -0.26386
  outer loop
   vertex -4.15e-05 0.000254233 7.3917e-05
   vertex -4.15e-05 0.000256428 6.5893e-05
   vertex 0.00114704 0.000257325 6.5341e-05
  endloop
 endfacet
 facet normal 0.000605406 -0.964561 -0.26386
  outer loop
   vertex -4.15e-05 0.000254233 7.3917e-05
   vertex 0.00114704 0.000257325 6.5341e-05
   vertex 0.00114704 0.00025513 7.3365e-05
  endloop
 endfacet
 facet normal 0.000881217 -0.799754 0.600327
  outer loop
   vertex -4.15e-05 0.000214173 -0.000155613
   vertex -4.15e-05 0.000209179 -0.000162266
   vertex 0.00114704 0.000210075 -0.000162817
  endloop
 endfacet
 facet normal 0.000881871 -0.799697 0.600403
  outer loop
   vertex -4.15e-05 0.000214173 -0.000155613
   vertex 0.00114704 0.000210075 -0.000162817
   vertex 0.00114704 0.00021507 -0.000156164
  endloop
 endfacet
 facet normal -0.000164435 0.673025 0.73962
  outer loop
   vertex -4.15e-05 -0.000175182 -0.000198598
   vertex -4.15e-05 -0.000181335 -0.000192999
   vertex 0.00114704 -0.000180438 -0.000193551
  endloop
 endfacet
 facet normal -0.00016394 0.673085 0.739565
  outer loop
   vertex -4.15e-05 -0.000175182 -0.000198598
   vertex 0.00114704 -0.000180438 -0.000193551
   vertex 0.00114704 -0.000174286 -0.00019915
  endloop
 endfacet
 facet normal 0.000699261 -0.99396 -0.109745
  outer loop
   vertex -4.15e-05 0.000262659 3.3227e-05
   vertex -4.15e-05 0.000263572 2.4958e-05
   vertex 0.00114704 0.000264469 2.4407e-05
  endloop
 endfacet
 facet normal 0.000699261 -0.99396 -0.109745
  outer loop
   vertex -4.15e-05 0.000262659 3.3227e-05
   vertex 0.00114704 0.000264469 2.4407e-05
   vertex 0.00114704 0.000263556 3.2676e-05
  endloop
 endfacet
 facet normal 0.000139835 0.382661 0.923889
  outer loop
   vertex -4.15e-05 -9.7544e-05 -0.000246175
   vertex -4.15e-05 -0.000105229 -0.000242992
   vertex 0.00114704 -0.000104333 -0.000243543
  endloop
 endfacet
 facet normal 0.000140232 0.382721 0.923864
  outer loop
   vertex -4.15e-05 -9.7544e-05 -0.000246175
   vertex 0.00114704 -0.000104333 -0.000243543
   vertex 0.00114704 -9.6647e-05 -0.000246727
  endloop
 endfacet
 facet normal 0.000717857 -0.382618 0.923906
  outer loop
   vertex -4.15e-05 0.000105107 -0.000242992
   vertex -4.15e-05 9.7421e-05 -0.000246175
   vertex 0.00114704 9.8318e-05 -0.000246727
  endloop
 endfacet
 facet normal 0.000717137 -0.38272 0.923864
  outer loop
   vertex -4.15e-05 0.000105107 -0.000242992
   vertex 0.00114704 9.8318e-05 -0.000246727
   vertex 0.00114704 0.000106004 -0.000243543
  endloop
 endfacet
 facet normal -0.00076182 0.999879 -0.0155067
  outer loop
   vertex -4.15e-05 -0.000264868 3.8e-08
   vertex -4.15e-05 -0.000264739 8.355e-06
   vertex 0.00114704 -0.000263842 7.804e-06
  endloop
 endfacet
 facet normal -0.000761011 0.999878 -0.0156302
  outer loop
   vertex -4.15e-05 -0.000264868 3.8e-08
   vertex 0.00114704 -0.000263842 7.804e-06
   vertex 0.00114704 -0.000263972 -5.14e-07
  endloop
 endfacet
 facet normal -0.000733488 0.411473 -0.911422
  outer loop
   vertex -4.15e-05 -0.000112811 0.000239644
   vertex -4.15e-05 -0.000105229 0.000243067
   vertex 0.00114704 -0.000104333 0.000242515
  endloop
 endfacet
 facet normal -0.000733858 0.411518 -0.911401
  outer loop
   vertex -4.15e-05 -0.000112811 0.000239644
   vertex 0.00114704 -0.000104333 0.000242515
   vertex 0.00114704 -0.000111914 0.000239092
  endloop
 endfacet
 facet normal -0.000646888 0.26386 -0.964561
  outer loop
   vertex -4.15e-05 -7.394e-05 0.000254332
   vertex -4.15e-05 -6.5916e-05 0.000256527
   vertex 0.00114704 -6.502e-05 0.000255975
  endloop
 endfacet
 facet normal -0.000646888 0.26386 -0.964561
  outer loop
   vertex -4.15e-05 -7.394e-05 0.000254332
   vertex 0.00114704 -6.502e-05 0.000255975
   vertex 0.00114704 -7.3044e-05 0.00025378
  endloop
 endfacet
 facet normal -0.000604829 0.964561 0.26386
  outer loop
   vertex -4.15e-05 -0.000254355 -7.3842e-05
   vertex -4.15e-05 -0.00025655 -6.5818e-05
   vertex 0.00114704 -0.000255654 -6.6369e-05
  endloop
 endfacet
 facet normal -0.000605576 0.96453 0.263973
  outer loop
   vertex -4.15e-05 -0.000254355 -7.3842e-05
   vertex 0.00114704 -0.000255654 -6.6369e-05
   vertex 0.00114704 -0.000253458 -7.4393e-05
  endloop
 endfacet
 facet normal -0.000541368 0.935467 0.353414
  outer loop
   vertex -4.15e-05 -0.000246274 -9.7445e-05
   vertex -4.15e-05 -0.000249214 -8.9663e-05
   vertex 0.00114704 -0.000248318 -9.0214e-05
  endloop
 endfacet
 facet normal -0.000542077 0.935427 0.35352
  outer loop
   vertex -4.15e-05 -0.000246274 -9.7445e-05
   vertex 0.00114704 -0.000248318 -9.0214e-05
   vertex 0.00114704 -0.000245377 -9.7996e-05
  endloop
 endfacet
 facet normal -0.000451743 -0.0156266 -0.999878
  outer loop
   vertex -4.15e-05 -6.1e-08 0.000264846
   vertex -4.15e-05 8.257e-06 0.000264716
   vertex 0.00114704 9.153e-06 0.000264165
  endloop
 endfacet
 facet normal -0.000452674 -0.0155067 -0.99988
  outer loop
   vertex -4.15e-05 -6.1e-08 0.000264846
   vertex 0.00114704 9.153e-06 0.000264165
   vertex 0.00114704 8.36e-07 0.000264294
  endloop
 endfacet
 facet normal 0.000522151 -0.0783711 0.996924
  outer loop
   vertex -4.15e-05 2.486e-05 -0.000263596
   vertex -4.15e-05 1.6566e-05 -0.000264248
   vertex 0.00114704 1.7463e-05 -0.0002648
  endloop
 endfacet
 facet normal 0.000521351 -0.078498 0.996914
  outer loop
   vertex -4.15e-05 2.486e-05 -0.000263596
   vertex 0.00114704 1.7463e-05 -0.0002648
   vertex 0.00114704 2.5756e-05 -0.000264147
  endloop
 endfacet
 facet normal -0.000823848 0.600384 -0.799711
  outer loop
   vertex -4.15e-05 -0.000162364 0.000209278
   vertex -4.15e-05 -0.000155712 0.000214272
   vertex 0.00114704 -0.000154815 0.000213721
  endloop
 endfacet
 facet normal -0.000824031 0.600404 -0.799696
  outer loop
   vertex -4.15e-05 -0.000162364 0.000209278
   vertex 0.00114704 -0.000154815 0.000213721
   vertex 0.00114704 -0.000161468 0.000208726
  endloop
 endfacet
 facet normal -0.000880952 0.898005 -0.439985
  outer loop
   vertex -4.15e-05 -0.000239667 0.000112788
   vertex -4.15e-05 -0.000236007 0.000120258
   vertex 0.00114704 -0.000235111 0.000119707
  endloop
 endfacet
 facet normal -0.000882062 0.898075 -0.439841
  outer loop
   vertex -4.15e-05 -0.000239667 0.000112788
   vertex 0.00114704 -0.000235111 0.000119707
   vertex 0.00114704 -0.00023877 0.000112236
  endloop
 endfacet
 facet normal -0.000665543 0.294001 -0.955805
  outer loop
   vertex -4.15e-05 -8.1892e-05 0.000251886
   vertex -4.15e-05 -7.394e-05 0.000254332
   vertex 0.00114704 -7.3044e-05 0.00025378
  endloop
 endfacet
 facet normal -0.000665811 0.294035 -0.955795
  outer loop
   vertex -4.15e-05 -8.1892e-05 0.000251886
   vertex 0.00114704 -7.3044e-05 0.00025378
   vertex 0.00114704 -8.0995e-05 0.000251334
  endloop
 endfacet
 facet normal -0.000496676 0.911376 0.411574
  outer loop
   vertex -4.15e-05 -0.000239667 -0.000112712
   vertex -4.15e-05 -0.000243091 -0.00010513
   vertex 0.00114704 -0.000242194 -0.000105682
  endloop
 endfacet
 facet normal -0.000496676 0.911376 0.411574
  outer loop
   vertex -4.15e-05 -0.000239667 -0.000112712
   vertex 0.00114704 -0.000242194 -0.000105682
   vertex 0.00114704 -0.00023877 -0.000113264
  endloop
 endfacet
 facet normal -0.00040383 -0.0784886 -0.996915
  outer loop
   vertex -4.15e-05 1.6566e-05 0.000264324
   vertex -4.15e-05 2.486e-05 0.000263671
   vertex 0.00114704 2.5756e-05 0.000263119
  endloop
 endfacet
 facet normal -0.000403757 -0.078498 -0.996914
  outer loop
   vertex -4.15e-05 1.6566e-05 0.000264324
   vertex 0.00114704 2.5756e-05 0.000263119
   vertex 0.00114704 1.7463e-05 0.000263772
  endloop
 endfacet
 facet normal 9.98133e-07 0.522446 0.852673
  outer loop
   vertex -4.15e-05 -0.00013486 -0.000227894
   vertex -4.15e-05 -0.000141953 -0.000223548
   vertex 0.00114704 -0.000141056 -0.000224099
  endloop
 endfacet
 facet normal 1.63876e-06 0.522535 0.852618
  outer loop
   vertex -4.15e-05 -0.00013486 -0.000227894
   vertex 0.00114704 -0.000141056 -0.000224099
   vertex 0.00114704 -0.000133963 -0.000228446
  endloop
 endfacet
 facet normal -0.00014033 -0.382618 -0.923907
  outer loop
   vertex -4.15e-05 9.7421e-05 0.00024625
   vertex -4.15e-05 0.000105107 0.000243067
   vertex 0.00114704 0.000106004 0.000242515
  endloop
 endfacet
 facet normal -0.000139454 -0.382721 -0.923864
  outer loop
   vertex -4.15e-05 9.7421e-05 0.00024625
   vertex 0.00114704 0.000106004 0.000242515
   vertex 0.00114704 9.8318e-05 0.000245699
  endloop
 endfacet
 facet normal -0.000272733 0.76035 0.649514
  outer loop
   vertex -4.15e-05 -0.000198697 -0.000175083
   vertex -4.15e-05 -0.0002041 -0.000168758
   vertex 0.00114704 -0.000203203 -0.000169309
  endloop
 endfacet
 facet normal -0.000272254 0.760401 0.649454
  outer loop
   vertex -4.15e-05 -0.000198697 -0.000175083
   vertex 0.00114704 -0.000203203 -0.000169309
   vertex 0.00114704 -0.0001978 -0.000175635
  endloop
 endfacet
 facet normal -0.000350236 0.818169 0.574978
  outer loop
   vertex -4.15e-05 -0.000214296 -0.000155613
   vertex -4.15e-05 -0.000219079 -0.000148807
   vertex 0.00114704 -0.000218183 -0.000149358
  endloop
 endfacet
 facet normal -0.000350844 0.818112 0.575059
  outer loop
   vertex -4.15e-05 -0.000214296 -0.000155613
   vertex 0.00114704 -0.000218183 -0.000149358
   vertex 0.00114704 -0.000213399 -0.000156164
  endloop
 endfacet
 facet normal 0.000864196 -0.946066 0.323972
  outer loop
   vertex -4.15e-05 0.000251787 -8.1793e-05
   vertex -4.15e-05 0.000249092 -8.9663e-05
   vertex 0.00114704 0.000249989 -9.0214e-05
  endloop
 endfacet
 facet normal 0.000864184 -0.946067 0.32397
  outer loop
   vertex -4.15e-05 0.000251787 -8.1793e-05
   vertex 0.00114704 0.000249989 -9.0214e-05
   vertex 0.00114704 0.000252684 -8.2344e-05
  endloop
 endfacet
 facet normal -0.000544464 0.109761 -0.993958
  outer loop
   vertex -4.15e-05 -3.325e-05 0.000262758
   vertex -4.15e-05 -2.4982e-05 0.000263671
   vertex 0.00114704 -2.4085e-05 0.000263119
  endloop
 endfacet
 facet normal -0.00054343 0.109628 -0.993973
  outer loop
   vertex -4.15e-05 -3.325e-05 0.000262758
   vertex 0.00114704 -2.4085e-05 0.000263119
   vertex 0.00114704 -3.2354e-05 0.000262207
  endloop
 endfacet
 facet normal 0.000352774 0.140884 0.990026
  outer loop
   vertex -4.15e-05 -3.325e-05 -0.000262683
   vertex -4.15e-05 -4.1486e-05 -0.000261511
   vertex 0.00114704 -4.059e-05 -0.000262062
  endloop
 endfacet
 facet normal 0.000352752 0.14088 0.990027
  outer loop
   vertex -4.15e-05 -3.325e-05 -0.000262683
   vertex 0.00114704 -4.059e-05 -0.000262062
   vertex 0.00114704 -3.2354e-05 -0.000263234
  endloop
 endfacet
 facet normal -0.000858748 0.695962 -0.718078
  outer loop
   vertex -4.15e-05 -0.000187309 0.000187285
   vertex -4.15e-05 -0.000181335 0.000193075
   vertex 0.00114704 -0.000180438 0.000192523
  endloop
 endfacet
 facet normal -0.000858117 0.695899 -0.718139
  outer loop
   vertex -4.15e-05 -0.000187309 0.000187285
   vertex 0.00114704 -0.000180438 0.000192523
   vertex 0.00114704 -0.000186412 0.000186734
  endloop
 endfacet
 facet normal 0.000607096 -0.202908 0.979198
  outer loop
   vertex -4.15e-05 5.7705e-05 -0.000258393
   vertex -4.15e-05 4.9559e-05 -0.000260081
   vertex 0.00114704 5.0456e-05 -0.000260632
  endloop
 endfacet
 facet normal 0.000607833 -0.202795 0.979221
  outer loop
   vertex -4.15e-05 5.7705e-05 -0.000258393
   vertex 0.00114704 5.0456e-05 -0.000260632
   vertex 0.00114704 5.8602e-05 -0.000258945
  endloop
 endfacet
 facet normal 0.000327115 0.1719 0.985114
  outer loop
   vertex -4.15e-05 -4.1486e-05 -0.000261511
   vertex -4.15e-05 -4.9681e-05 -0.000260081
   vertex 0.00114704 -4.8785e-05 -0.000260632
  endloop
 endfacet
 facet normal 0.000327115 0.1719 0.985114
  outer loop
   vertex -4.15e-05 -4.1486e-05 -0.000261511
   vertex 0.00114704 -4.8785e-05 -0.000260632
   vertex 0.00114704 -4.059e-05 -0.000262062
  endloop
 endfacet
 facet normal -0.000800994 0.993973 -0.109624
  outer loop
   vertex -4.15e-05 -0.000263694 2.4958e-05
   vertex -4.15e-05 -0.000262782 3.3227e-05
   vertex 0.00114704 -0.000261885 3.2676e-05
  endloop
 endfacet
 facet normal -0.000800169 0.993959 -0.109748
  outer loop
   vertex -4.15e-05 -0.000263694 2.4958e-05
   vertex 0.00114704 -0.000261885 3.2676e-05
   vertex 0.00114704 -0.000262798 2.4407e-05
  endloop
 endfacet
 facet normal -0.000878972 0.911376 -0.411574
  outer loop
   vertex -4.15e-05 -0.000243091 0.000105206
   vertex -4.15e-05 -0.000239667 0.000112788
   vertex 0.00114704 -0.00023877 0.000112236
  endloop
 endfacet
 facet normal -0.000878972 0.911376 -0.411574
  outer loop
   vertex -4.15e-05 -0.000243091 0.000105206
   vertex 0.00114704 -0.00023877 0.000112236
   vertex 0.00114704 -0.000242194 0.000104654
  endloop
 endfacet
 facet normal 0.000586438 -0.1719 0.985114
  outer loop
   vertex -4.15e-05 4.9559e-05 -0.000260081
   vertex -4.15e-05 4.1364e-05 -0.000261511
   vertex 0.00114704 4.2261e-05 -0.000262062
  endloop
 endfacet
 facet normal 0.000586437 -0.1719 0.985114
  outer loop
   vertex -4.15e-05 4.9559e-05 -0.000260081
   vertex 0.00114704 4.2261e-05 -0.000262062
   vertex 0.00114704 5.0456e-05 -0.000260632
  endloop
 endfacet
 facet normal -0.000874981 0.923907 -0.382616
  outer loop
   vertex -4.15e-05 -0.000246274 9.752e-05
   vertex -4.15e-05 -0.000243091 0.000105206
   vertex 0.00114704 -0.000242194 0.000104654
  endloop
 endfacet
 facet normal -0.000874654 0.923889 -0.38266
  outer loop
   vertex -4.15e-05 -0.000246274 9.752e-05
   vertex 0.00114704 -0.000242194 0.000104654
   vertex 0.00114704 -0.000245377 9.6969e-05
  endloop
 endfacet
 facet normal -0.000885005 0.852618 -0.522534
  outer loop
   vertex -4.15e-05 -0.000227993 0.000134836
   vertex -4.15e-05 -0.000223646 0.000141929
   vertex 0.00114704 -0.00022275 0.000141378
  endloop
 endfacet
 facet normal -0.000885711 0.852671 -0.522448
  outer loop
   vertex -4.15e-05 -0.000227993 0.000134836
   vertex 0.00114704 -0.00022275 0.000141378
   vertex 0.00114704 -0.000227096 0.000134285
  endloop
 endfacet
 facet normal -0.000878856 0.780435 -0.625237
  outer loop
   vertex -4.15e-05 -0.000209301 0.000162341
   vertex -4.15e-05 -0.0002041 0.000168833
   vertex 0.00114704 -0.000203203 0.000168282
  endloop
 endfacet
 facet normal -0.00087938 0.780481 -0.625179
  outer loop
   vertex -4.15e-05 -0.000209301 0.000162341
   vertex 0.00114704 -0.000203203 0.000168282
   vertex 0.00114704 -0.000208404 0.000161789
  endloop
 endfacet
 facet normal -0.000763616 0.46796 -0.88375
  outer loop
   vertex -4.15e-05 -0.000127634 0.000232091
   vertex -4.15e-05 -0.000120282 0.000235984
   vertex 0.00114704 -0.000119385 0.000235432
  endloop
 endfacet
 facet normal -0.000762826 0.467866 -0.883799
  outer loop
   vertex -4.15e-05 -0.000127634 0.000232091
   vertex 0.00114704 -0.000119385 0.000235432
   vertex 0.00114704 -0.000126737 0.00023154
  endloop
 endfacet
 facet normal 0.000565282 -0.140884 0.990026
  outer loop
   vertex -4.15e-05 4.1364e-05 -0.000261511
   vertex -4.15e-05 3.3128e-05 -0.000262683
   vertex 0.00114704 3.4025e-05 -0.000263234
  endloop
 endfacet
 facet normal 0.000565304 -0.14088 0.990027
  outer loop
   vertex -4.15e-05 4.1364e-05 -0.000261511
   vertex 0.00114704 3.4025e-05 -0.000263234
   vertex 0.00114704 4.2261e-05 -0.000262062
  endloop
 endfacet
 facet normal -0.000627585 0.233443 -0.97237
  outer loop
   vertex -4.15e-05 -6.5916e-05 0.000256527
   vertex -4.15e-05 -5.7827e-05 0.000258469
   vertex 0.00114704 -5.6931e-05 0.000257917
  endloop
 endfacet
 facet normal -0.000627585 0.233443 -0.97237
  outer loop
   vertex -4.15e-05 -6.5916e-05 0.000256527
   vertex 0.00114704 -5.6931e-05 0.000257917
   vertex 0.00114704 -6.502e-05 0.000255975
  endloop
 endfacet
 facet normal 0.000274908 0.233331 0.972397
  outer loop
   vertex -4.15e-05 -5.7827e-05 -0.000258393
   vertex -4.15e-05 -6.5916e-05 -0.000256452
   vertex 0.00114704 -6.502e-05 -0.000257003
  endloop
 endfacet
 facet normal 0.000275616 0.233443 0.97237
  outer loop
   vertex -4.15e-05 -5.7827e-05 -0.000258393
   vertex 0.00114704 -6.502e-05 -0.000257003
   vertex 0.00114704 -5.6931e-05 -0.000258945
  endloop
 endfacet
 facet normal 2.61523e-05 -0.549 -0.835822
  outer loop
   vertex -4.15e-05 0.00014183 0.000223623
   vertex -4.15e-05 0.000148783 0.000219056
   vertex 0.00114704 0.00014968 0.000218504
  endloop
 endfacet
 facet normal 2.61523e-05 -0.549 -0.835822
  outer loop
   vertex -4.15e-05 0.00014183 0.000223623
   vertex 0.00114704 0.00014968 0.000218504
   vertex 0.00114704 0.000142727 0.000223071
  endloop
 endfacet
 facet normal 0.00037628 -0.835822 -0.549
  outer loop
   vertex -4.15e-05 0.000218957 0.000148882
   vertex -4.15e-05 0.000223524 0.000141929
   vertex 0.00114704 0.000224421 0.000141378
  endloop
 endfacet
 facet normal 0.00037628 -0.835822 -0.549
  outer loop
   vertex -4.15e-05 0.000218957 0.000148882
   vertex 0.00114704 0.000224421 0.000141378
   vertex 0.00114704 0.000219854 0.000148331
  endloop
 endfacet
 facet normal -0.000885245 0.868612 -0.495491
  outer loop
   vertex -4.15e-05 -0.000232115 0.00012761
   vertex -4.15e-05 -0.000227993 0.000134836
   vertex 0.00114704 -0.000227096 0.000134285
  endloop
 endfacet
 facet normal -0.000885256 0.868613 -0.49549
  outer loop
   vertex -4.15e-05 -0.000232115 0.00012761
   vertex 0.00114704 -0.000227096 0.000134285
   vertex 0.00114704 -0.000231218 0.000127059
  endloop
 endfacet
 facet normal -0.000701247 0.35352 -0.935427
  outer loop
   vertex -4.15e-05 -9.7544e-05 0.00024625
   vertex -4.15e-05 -8.9762e-05 0.000249191
   vertex 0.00114704 -8.8865e-05 0.000248639
  endloop
 endfacet
 facet normal -0.000700398 0.353414 -0.935467
  outer loop
   vertex -4.15e-05 -9.7544e-05 0.00024625
   vertex 0.00114704 -8.8865e-05 0.000248639
   vertex 0.00114704 -9.6647e-05 0.000245699
  endloop
 endfacet
 facet normal -0.000245622 0.739619 0.673026
  outer loop
   vertex -4.15e-05 -0.000193098 -0.000181236
   vertex -4.15e-05 -0.000198697 -0.000175083
   vertex 0.00114704 -0.0001978 -0.000175635
  endloop
 endfacet
 facet normal -0.000245068 0.739679 0.672959
  outer loop
   vertex -4.15e-05 -0.000193098 -0.000181236
   vertex 0.00114704 -0.0001978 -0.000175635
   vertex 0.00114704 -0.000192202 -0.000181788
  endloop
 endfacet
 facet normal 0.000775702 -0.998889 0.0471185
  outer loop
   vertex -4.15e-05 0.000264617 -8.28e-06
   vertex -4.15e-05 0.000264225 -1.659e-05
   vertex 0.00114704 0.000265122 -1.7141e-05
  endloop
 endfacet
 facet normal 0.000775744 -0.998889 0.0471241
  outer loop
   vertex -4.15e-05 0.000264617 -8.28e-06
   vertex 0.00114704 0.000265122 -1.7141e-05
   vertex 0.00114704 0.000265514 -8.832e-06
  endloop
 endfacet
 facet normal 0.000350834 -0.818112 -0.575059
  outer loop
   vertex -4.15e-05 0.000214173 0.000155688
   vertex -4.15e-05 0.000218957 0.000148882
   vertex 0.00114704 0.000219854 0.000148331
  endloop
 endfacet
 facet normal 0.000350834 -0.818112 -0.575059
  outer loop
   vertex -4.15e-05 0.000214173 0.000155688
   vertex 0.00114704 0.000219854 0.000148331
   vertex 0.00114704 0.00021507 0.000155137
  endloop
 endfacet
 facet normal 0.000801015 -0.993959 0.109745
  outer loop
   vertex -4.15e-05 0.000263572 -2.4883e-05
   vertex -4.15e-05 0.000262659 -3.3152e-05
   vertex 0.00114704 0.000263556 -3.3703e-05
  endloop
 endfacet
 facet normal 0.000801112 -0.993958 0.109758
  outer loop
   vertex -4.15e-05 0.000263572 -2.4883e-05
   vertex 0.00114704 0.000263556 -3.3703e-05
   vertex 0.00114704 0.000264469 -2.5435e-05
  endloop
 endfacet
 facet normal -0.000218175 0.718139 0.6959
  outer loop
   vertex -4.15e-05 -0.000187309 -0.00018721
   vertex -4.15e-05 -0.000193098 -0.000181236
   vertex 0.00114704 -0.000192202 -0.000181788
  endloop
 endfacet
 facet normal -0.000218697 0.71808 0.695961
  outer loop
   vertex -4.15e-05 -0.000187309 -0.00018721
   vertex 0.00114704 -0.000192202 -0.000181788
   vertex 0.00114704 -0.000186412 -0.000187762
  endloop
 endfacet
 facet normal 0.000788825 -0.996914 0.0784979
  outer loop
   vertex -4.15e-05 0.000264225 -1.659e-05
   vertex -4.15e-05 0.000263572 -2.4883e-05
   vertex 0.00114704 0.000264469 -2.5435e-05
  endloop
 endfacet
 facet normal 0.000788755 -0.996915 0.0784885
  outer loop
   vertex -4.15e-05 0.000264225 -1.659e-05
   vertex 0.00114704 0.000264469 -2.5435e-05
   vertex 0.00114704 0.000265122 -1.7141e-05
  endloop
 endfacet
 facet normal -0.000850876 0.673025 -0.739619
  outer loop
   vertex -4.15e-05 -0.000181335 0.000193075
   vertex -4.15e-05 -0.000175182 0.000198674
   vertex 0.00114704 -0.000174286 0.000198122
  endloop
 endfacet
 facet normal -0.000851461 0.673085 -0.739565
  outer loop
   vertex -4.15e-05 -0.000181335 0.000193075
   vertex 0.00114704 -0.000174286 0.000198122
   vertex 0.00114704 -0.000180438 0.000192523
  endloop
 endfacet
 facet normal -5.64764e-05 -0.46801 -0.883723
  outer loop
   vertex -4.15e-05 0.00012016 0.000235984
   vertex -4.15e-05 0.000127511 0.000232091
   vertex 0.00114704 0.000128408 0.00023154
  endloop
 endfacet
 facet normal -5.77585e-05 -0.467866 -0.883799
  outer loop
   vertex -4.15e-05 0.00012016 0.000235984
   vertex 0.00114704 0.000128408 0.00023154
   vertex 0.00114704 0.000121056 0.000235432
  endloop
 endfacet
 facet normal -0.000683887 0.323972 -0.946067
  outer loop
   vertex -4.15e-05 -8.9762e-05 0.000249191
   vertex -4.15e-05 -8.1892e-05 0.000251886
   vertex 0.00114704 -8.0995e-05 0.000251334
  endloop
 endfacet
 facet normal -0.000683889 0.323972 -0.946066
  outer loop
   vertex -4.15e-05 -8.9762e-05 0.000249191
   vertex 0.00114704 -8.0995e-05 0.000251334
   vertex 0.00114704 -8.8865e-05 0.000248639
  endloop
 endfacet
 facet normal 0.000790314 -0.522446 0.852672
  outer loop
   vertex -4.15e-05 0.00014183 -0.000223548
   vertex -4.15e-05 0.000134737 -0.000227894
   vertex 0.00114704 0.000135634 -0.000228446
  endloop
 endfacet
 facet normal 0.000789629 -0.522535 0.852618
  outer loop
   vertex -4.15e-05 0.00014183 -0.000223548
   vertex 0.00114704 0.000135634 -0.000228446
   vertex 0.00114704 0.000142727 -0.000224099
  endloop
 endfacet
 facet normal -0.000195188 -0.323935 -0.946079
  outer loop
   vertex -4.15e-05 8.1769e-05 0.000251886
   vertex -4.15e-05 8.964e-05 0.000249191
   vertex 0.00114704 9.0536e-05 0.000248639
  endloop
 endfacet
 facet normal -0.00019488 -0.323972 -0.946067
  outer loop
   vertex -4.15e-05 8.1769e-05 0.000251886
   vertex 0.00114704 9.0536e-05 0.000248639
   vertex 0.00114704 8.2666e-05 0.000251334
  endloop
 endfacet
 facet normal 0.000834332 -0.625238 0.780434
  outer loop
   vertex -4.15e-05 0.000168734 -0.000204001
   vertex -4.15e-05 0.000162242 -0.000209202
   vertex 0.00114704 0.000163139 -0.000209754
  endloop
 endfacet
 facet normal 0.000833704 -0.625311 0.780375
  outer loop
   vertex -4.15e-05 0.000168734 -0.000204001
   vertex 0.00114704 0.000163139 -0.000209754
   vertex 0.00114704 0.000169631 -0.000204552
  endloop
 endfacet
 facet normal -1.62152e-06 -0.522535 -0.852618
  outer loop
   vertex -4.15e-05 0.000134737 0.00022797
   vertex -4.15e-05 0.00014183 0.000223623
   vertex 0.00114704 0.000142727 0.000223071
  endloop
 endfacet
 facet normal -1.62152e-06 -0.522535 -0.852618
  outer loop
   vertex -4.15e-05 0.000134737 0.00022797
   vertex 0.00114704 0.000142727 0.000223071
   vertex 0.00114704 0.000135634 0.000227418
  endloop
 endfacet
 facet normal 0.000823154 -0.985114 0.1719
  outer loop
   vertex -4.15e-05 0.000261487 -4.1388e-05
   vertex -4.15e-05 0.000260057 -4.9583e-05
   vertex 0.00114704 0.000260954 -5.0134e-05
  endloop
 endfacet
 facet normal 0.000823154 -0.985114 0.1719
  outer loop
   vertex -4.15e-05 0.000261487 -4.1388e-05
   vertex 0.00114704 0.000260954 -5.0134e-05
   vertex 0.00114704 0.000262384 -4.1939e-05
  endloop
 endfacet
 facet normal -2.95537e-05 -0.4954 -0.868665
  outer loop
   vertex -4.15e-05 0.000127511 0.000232091
   vertex -4.15e-05 0.000134737 0.00022797
   vertex 0.00114704 0.000135634 0.000227418
  endloop
 endfacet
 facet normal -2.87317e-05 -0.49549 -0.868613
  outer loop
   vertex -4.15e-05 0.000127511 0.000232091
   vertex 0.00114704 0.000135634 0.000227418
   vertex 0.00114704 0.000128408 0.00023154
  endloop
 endfacet
 facet normal -0.000166816 -0.353559 -0.935412
  outer loop
   vertex -4.15e-05 8.964e-05 0.000249191
   vertex -4.15e-05 9.7421e-05 0.00024625
   vertex 0.00114704 9.8318e-05 0.000245699
  endloop
 endfacet
 facet normal -0.000168035 -0.353414 -0.935467
  outer loop
   vertex -4.15e-05 8.964e-05 0.000249191
   vertex 0.00114704 9.8318e-05 0.000245699
   vertex 0.00114704 9.0536e-05 0.000248639
  endloop
 endfacet
 facet normal 0.000801854 -0.549084 0.835767
  outer loop
   vertex -4.15e-05 0.000148783 -0.00021898
   vertex -4.15e-05 0.00014183 -0.000223548
   vertex 0.00114704 0.000142727 -0.000224099
  endloop
 endfacet
 facet normal 0.000802518 -0.549 0.835822
  outer loop
   vertex -4.15e-05 0.000148783 -0.00021898
   vertex 0.00114704 0.000142727 -0.000224099
   vertex 0.00114704 0.00014968 -0.000219532
  endloop
 endfacet
 facet normal -0.000811799 0.990009 -0.141003
  outer loop
   vertex -4.15e-05 -0.000262782 3.3227e-05
   vertex -4.15e-05 -0.000261609 4.1463e-05
   vertex 0.00114704 -0.000260713 4.0911e-05
  endloop
 endfacet
 facet normal -0.000812511 0.990024 -0.140897
  outer loop
   vertex -4.15e-05 -0.000262782 3.3227e-05
   vertex 0.00114704 -0.000260713 4.0911e-05
   vertex 0.00114704 -0.000261885 3.2676e-05
  endloop
 endfacet
 facet normal 0.000842665 -0.649453 0.760401
  outer loop
   vertex -4.15e-05 0.00017506 -0.000198598
   vertex -4.15e-05 0.000168734 -0.000204001
   vertex 0.00114704 0.000169631 -0.000204552
  endloop
 endfacet
 facet normal 0.000843271 -0.649385 0.76046
  outer loop
   vertex -4.15e-05 0.00017506 -0.000198598
   vertex 0.00114704 0.000169631 -0.000204552
   vertex 0.00114704 0.000175957 -0.00019915
  endloop
 endfacet
 facet normal 0.000683803 -0.323827 0.946116
  outer loop
   vertex -4.15e-05 8.964e-05 -0.000249116
   vertex -4.15e-05 8.1769e-05 -0.00025181
   vertex 0.00114704 8.2666e-05 -0.000252362
  endloop
 endfacet
 facet normal 0.00068282 -0.323972 0.946066
  outer loop
   vertex -4.15e-05 8.964e-05 -0.000249116
   vertex 0.00114704 8.2666e-05 -0.000252362
   vertex 0.00114704 9.0536e-05 -0.000249667
  endloop
 endfacet
 facet normal -0.000352658 -0.14088 -0.990027
  outer loop
   vertex -4.15e-05 3.3128e-05 0.000262758
   vertex -4.15e-05 4.1364e-05 0.000261586
   vertex 0.00114704 4.2261e-05 0.000261035
  endloop
 endfacet
 facet normal -0.000352631 -0.140883 -0.990026
  outer loop
   vertex -4.15e-05 3.3128e-05 0.000262758
   vertex 0.00114704 4.2261e-05 0.000261035
   vertex 0.00114704 3.4025e-05 0.000262207
  endloop
 endfacet
 facet normal 0.000472622 -0.898004 -0.439987
  outer loop
   vertex -4.15e-05 0.000235885 0.000120258
   vertex -4.15e-05 0.000239545 0.000112788
   vertex 0.00114704 0.000240441 0.000112236
  endloop
 endfacet
 facet normal 0.000473879 -0.898076 -0.439841
  outer loop
   vertex -4.15e-05 0.000235885 0.000120258
   vertex 0.00114704 0.000240441 0.000112236
   vertex 0.00114704 0.000236782 0.000119707
  endloop
 endfacet
 facet normal -0.000377942 -0.109761 -0.993958
  outer loop
   vertex -4.15e-05 2.486e-05 0.000263671
   vertex -4.15e-05 3.3128e-05 0.000262758
   vertex 0.00114704 3.4025e-05 0.000262207
  endloop
 endfacet
 facet normal -0.000378989 -0.109628 -0.993973
  outer loop
   vertex -4.15e-05 2.486e-05 0.000263671
   vertex 0.00114704 3.4025e-05 0.000262207
   vertex 0.00114704 2.5756e-05 0.000263119
  endloop
 endfacet
 facet normal -0.000731998 0.998889 0.047122
  outer loop
   vertex -4.15e-05 -0.000264347 -1.659e-05
   vertex -4.15e-05 -0.000264739 -8.28e-06
   vertex 0.00114704 -0.000263842 -8.832e-06
  endloop
 endfacet
 facet normal -0.000731221 0.998895 0.0470026
  outer loop
   vertex -4.15e-05 -0.000264347 -1.659e-05
   vertex 0.00114704 -0.000263842 -8.832e-06
   vertex 0.00114704 -0.000263451 -1.7141e-05
  endloop
 endfacet
 facet normal 8.43891e-05 0.439841 0.898076
  outer loop
   vertex -4.15e-05 -0.000112811 -0.000239568
   vertex -4.15e-05 -0.000120282 -0.000235909
   vertex 0.00114704 -0.000119385 -0.00023646
  endloop
 endfacet
 facet normal 8.50508e-05 0.439938 0.898028
  outer loop
   vertex -4.15e-05 -0.000112811 -0.000239568
   vertex 0.00114704 -0.000119385 -0.00023646
   vertex 0.00114704 -0.000111914 -0.00024012
  endloop
 endfacet
 facet normal -0.000841459 0.97237 -0.233443
  outer loop
   vertex -4.15e-05 -0.000258492 5.7804e-05
   vertex -4.15e-05 -0.00025655 6.5893e-05
   vertex 0.00114704 -0.000255654 6.5341e-05
  endloop
 endfacet
 facet normal -0.000841459 0.97237 -0.233443
  outer loop
   vertex -4.15e-05 -0.000258492 5.7804e-05
   vertex 0.00114704 -0.000255654 6.5341e-05
   vertex 0.00114704 -0.000257596 5.7252e-05
  endloop
 endfacet
 facet normal 0.000496757 -0.911422 -0.411473
  outer loop
   vertex -4.15e-05 0.000239545 0.000112788
   vertex -4.15e-05 0.000242968 0.000105206
   vertex 0.00114704 0.000243865 0.000104654
  endloop
 endfacet
 facet normal 0.000495899 -0.911376 -0.411574
  outer loop
   vertex -4.15e-05 0.000239545 0.000112788
   vertex 0.00114704 0.000243865 0.000104654
   vertex 0.00114704 0.000240441 0.000112236
  endloop
 endfacet
 facet normal -0.000586293 0.1719 -0.985114
  outer loop
   vertex -4.15e-05 -4.9681e-05 0.000260156
   vertex -4.15e-05 -4.1486e-05 0.000261586
   vertex 0.00114704 -4.059e-05 0.000261035
  endloop
 endfacet
 facet normal -0.000587185 0.172014 -0.985094
  outer loop
   vertex -4.15e-05 -4.9681e-05 0.000260156
   vertex 0.00114704 -4.059e-05 0.000261035
   vertex 0.00114704 -4.8785e-05 0.000259604
  endloop
 endfacet
 facet normal 0.000112657 0.411574 0.911376
  outer loop
   vertex -4.15e-05 -0.000105229 -0.000242992
   vertex -4.15e-05 -0.000112811 -0.000239568
   vertex 0.00114704 -0.000111914 -0.00024012
  endloop
 endfacet
 facet normal 0.000112289 0.411519 0.911401
  outer loop
   vertex -4.15e-05 -0.000105229 -0.000242992
   vertex 0.00114704 -0.000111914 -0.00024012
   vertex 0.00114704 -0.000104333 -0.000243543
  endloop
 endfacet
 facet normal 0.000519046 -0.923864 -0.38272
  outer loop
   vertex -4.15e-05 0.000242968 0.000105206
   vertex -4.15e-05 0.000246152 9.752e-05
   vertex 0.00114704 0.000247048 9.6969e-05
  endloop
 endfacet
 facet normal 0.000519548 -0.923889 -0.38266
  outer loop
   vertex -4.15e-05 0.000242968 0.000105206
   vertex 0.00114704 0.000247048 9.6969e-05
   vertex 0.00114704 0.000243865 0.000104654
  endloop
 endfacet
 facet normal -0.000565161 0.14088 -0.990027
  outer loop
   vertex -4.15e-05 -4.1486e-05 0.000261586
   vertex -4.15e-05 -3.325e-05 0.000262758
   vertex 0.00114704 -3.2354e-05 0.000262207
  endloop
 endfacet
 facet normal -0.000565188 0.140884 -0.990026
  outer loop
   vertex -4.15e-05 -4.1486e-05 0.000261586
   vertex 0.00114704 -3.2354e-05 0.000262207
   vertex 0.00114704 -4.059e-05 0.000261035
  endloop
 endfacet
 facet normal 0.000858136 -0.695901 0.718138
  outer loop
   vertex -4.15e-05 0.000187187 -0.00018721
   vertex -4.15e-05 0.000181213 -0.000192999
   vertex 0.00114704 0.000182109 -0.000193551
  endloop
 endfacet
 facet normal 0.000858719 -0.695839 0.718197
  outer loop
   vertex -4.15e-05 0.000187187 -0.00018721
   vertex 0.00114704 0.000182109 -0.000193551
   vertex 0.00114704 0.000188084 -0.000187762
  endloop
 endfacet
 facet normal 0.000865193 -0.718138 0.6959
  outer loop
   vertex -4.15e-05 0.000192976 -0.000181236
   vertex -4.15e-05 0.000187187 -0.00018721
   vertex 0.00114704 0.000188084 -0.000187762
  endloop
 endfacet
 facet normal 0.000865185 -0.718139 0.695899
  outer loop
   vertex -4.15e-05 0.000192976 -0.000181236
   vertex 0.00114704 0.000188084 -0.000187762
   vertex 0.00114704 0.000193873 -0.000181788
  endloop
 endfacet
 facet normal -0.000662933 0.985115 0.171896
  outer loop
   vertex -4.15e-05 -0.000260179 -4.9583e-05
   vertex -4.15e-05 -0.000261609 -4.1388e-05
   vertex 0.00114704 -0.000260713 -4.1939e-05
  endloop
 endfacet
 facet normal -0.000663725 0.985094 0.172018
  outer loop
   vertex -4.15e-05 -0.000260179 -4.9583e-05
   vertex 0.00114704 -0.000260713 -4.1939e-05
   vertex 0.00114704 -0.000259282 -5.0134e-05
  endloop
 endfacet
 facet normal 0.000194183 0.323864 0.946104
  outer loop
   vertex -4.15e-05 -8.1892e-05 -0.00025181
   vertex -4.15e-05 -8.9762e-05 -0.000249116
   vertex 0.00114704 -8.8865e-05 -0.000249667
  endloop
 endfacet
 facet normal 0.000194882 0.323972 0.946067
  outer loop
   vertex -4.15e-05 -8.1892e-05 -0.00025181
   vertex 0.00114704 -8.8865e-05 -0.000249667
   vertex 0.00114704 -8.0995e-05 -0.000252362
  endloop
 endfacet
 facet normal 0.000885711 -0.852618 0.522534
  outer loop
   vertex -4.15e-05 0.000227871 -0.000134761
   vertex -4.15e-05 0.000223524 -0.000141854
   vertex 0.00114704 0.000224421 -0.000142405
  endloop
 endfacet
 facet normal 0.000884995 -0.852672 0.522446
  outer loop
   vertex -4.15e-05 0.000227871 -0.000134761
   vertex 0.00114704 0.000224421 -0.000142405
   vertex 0.00114704 0.000228767 -0.000135312
  endloop
 endfacet
 facet normal 0.000857647 -0.955794 0.294034
  outer loop
   vertex -4.15e-05 0.000254233 -7.3842e-05
   vertex -4.15e-05 0.000251787 -8.1793e-05
   vertex 0.00114704 0.000252684 -8.2344e-05
  endloop
 endfacet
 facet normal 0.000857647 -0.955794 0.294034
  outer loop
   vertex -4.15e-05 0.000254233 -7.3842e-05
   vertex 0.00114704 0.000252684 -8.2344e-05
   vertex 0.00114704 0.00025513 -7.4393e-05
  endloop
 endfacet
 facet normal 0.000378037 0.109758 0.993958
  outer loop
   vertex -4.15e-05 -2.4982e-05 -0.000263596
   vertex -4.15e-05 -3.325e-05 -0.000262683
   vertex 0.00114704 -3.2354e-05 -0.000263234
  endloop
 endfacet
 facet normal 0.000377977 0.109748 0.993959
  outer loop
   vertex -4.15e-05 -2.4982e-05 -0.000263596
   vertex 0.00114704 -3.2354e-05 -0.000263234
   vertex 0.00114704 -2.4085e-05 -0.000264147
  endloop
 endfacet
 facet normal 5.47302e-05 -0.575058 -0.818113
  outer loop
   vertex -4.15e-05 0.000148783 0.000219056
   vertex -4.15e-05 0.000155589 0.000214272
   vertex 0.00114704 0.000156486 0.000213721
  endloop
 endfacet
 facet normal 5.39561e-05 -0.574977 -0.818169
  outer loop
   vertex -4.15e-05 0.000148783 0.000219056
   vertex 0.00114704 0.000156486 0.000213721
   vertex 0.00114704 0.00014968 0.000218504
  endloop
 endfacet
 facet normal -2.62412e-05 0.549084 0.835767
  outer loop
   vertex -4.15e-05 -0.000141953 -0.000223548
   vertex -4.15e-05 -0.000148906 -0.00021898
   vertex 0.00114704 -0.000148009 -0.000219532
  endloop
 endfacet
 facet normal -2.68544e-05 0.549 0.835822
  outer loop
   vertex -4.15e-05 -0.000141953 -0.000223548
   vertex 0.00114704 -0.000148009 -0.000219532
   vertex 0.00114704 -0.000141056 -0.000224099
  endloop
 endfacet
 facet normal -5.46384e-05 0.574979 0.818168
  outer loop
   vertex -4.15e-05 -0.000148906 -0.00021898
   vertex -4.15e-05 -0.000155712 -0.000214197
   vertex 0.00114704 -0.000154815 -0.000214748
  endloop
 endfacet
 facet normal -5.40443e-05 0.575059 0.818112
  outer loop
   vertex -4.15e-05 -0.000148906 -0.00021898
   vertex 0.00114704 -0.000154815 -0.000214748
   vertex 0.00114704 -0.000148009 -0.000219532
  endloop
 endfacet
 facet normal 0.000425914 -0.868664 -0.495401
  outer loop
   vertex -4.15e-05 0.000227871 0.000134836
   vertex -4.15e-05 0.000231992 0.00012761
   vertex 0.00114704 0.000232889 0.000127059
  endloop
 endfacet
 facet normal 0.000425103 -0.868613 -0.495492
  outer loop
   vertex -4.15e-05 0.000227871 0.000134836
   vertex 0.00114704 0.000232889 0.000127059
   vertex 0.00114704 0.000228767 0.000134285
  endloop
 endfacet
 facet normal -0.000476169 0.0156266 -0.999878
  outer loop
   vertex -4.15e-05 -8.379e-06 0.000264716
   vertex -4.15e-05 -6.1e-08 0.000264846
   vertex 0.00114704 8.36e-07 0.000264294
  endloop
 endfacet
 facet normal -0.000475226 0.0155048 -0.99988
  outer loop
   vertex -4.15e-05 -8.379e-06 0.000264716
   vertex 0.00114704 8.36e-07 0.000264294
   vertex 0.00114704 -7.482e-06 0.000264165
  endloop
 endfacet
 facet normal -0.000401226 0.852619 0.522534
  outer loop
   vertex -4.15e-05 -0.000223646 -0.000141854
   vertex -4.15e-05 -0.000227993 -0.000134761
   vertex 0.00114704 -0.000227096 -0.000135312
  endloop
 endfacet
 facet normal -0.0004006 0.852671 0.522448
  outer loop
   vertex -4.15e-05 -0.000223646 -0.000141854
   vertex 0.00114704 -0.000227096 -0.000135312
   vertex 0.00114704 -0.00022275 -0.000142405
  endloop
 endfacet
 facet normal 0.000543547 -0.109758 0.993958
  outer loop
   vertex -4.15e-05 3.3128e-05 -0.000262683
   vertex -4.15e-05 2.486e-05 -0.000263596
   vertex 0.00114704 2.5756e-05 -0.000264147
  endloop
 endfacet
 facet normal 0.000543607 -0.109748 0.993959
  outer loop
   vertex -4.15e-05 3.3128e-05 -0.000262683
   vertex 0.00114704 2.5756e-05 -0.000264147
   vertex 0.00114704 3.4025e-05 -0.000263234
  endloop
 endfacet
 facet normal -0.000375588 0.835822 0.549
  outer loop
   vertex -4.15e-05 -0.000219079 -0.000148807
   vertex -4.15e-05 -0.000223646 -0.000141854
   vertex 0.00114704 -0.00022275 -0.000142405
  endloop
 endfacet
 facet normal -0.000375588 0.835822 0.549
  outer loop
   vertex -4.15e-05 -0.000219079 -0.000148807
   vertex 0.00114704 -0.00022275 -0.000142405
   vertex 0.00114704 -0.000218183 -0.000149358
  endloop
 endfacet
 facet normal 0.000842068 -0.972369 0.233447
  outer loop
   vertex -4.15e-05 0.00025837 -5.7729e-05
   vertex -4.15e-05 0.000256428 -6.5818e-05
   vertex 0.00114704 0.000257325 -6.6369e-05
  endloop
 endfacet
 facet normal 0.000842068 -0.972369 0.233447
  outer loop
   vertex -4.15e-05 0.00025837 -5.7729e-05
   vertex 0.00114704 0.000257325 -6.6369e-05
   vertex 0.00114704 0.000259267 -5.828e-05
  endloop
 endfacet
 facet normal -0.000498626 0.0471185 -0.998889
  outer loop
   vertex -4.15e-05 -1.6689e-05 0.000264324
   vertex -4.15e-05 -8.379e-06 0.000264716
   vertex 0.00114704 -7.482e-06 0.000264165
  endloop
 endfacet
 facet normal -0.000499566 0.04724 -0.998883
  outer loop
   vertex -4.15e-05 -1.6689e-05 0.000264324
   vertex 0.00114704 -7.482e-06 0.000264165
   vertex 0.00114704 -1.5792e-05 0.000263772
  endloop
 endfacet
 facet normal -0.000645025 0.979221 0.202795
  outer loop
   vertex -4.15e-05 -0.000258492 -5.7729e-05
   vertex -4.15e-05 -0.000260179 -4.9583e-05
   vertex 0.00114704 -0.000259282 -5.0134e-05
  endloop
 endfacet
 facet normal -0.000644263 0.979245 0.202678
  outer loop
   vertex -4.15e-05 -0.000258492 -5.7729e-05
   vertex 0.00114704 -0.000259282 -5.0134e-05
   vertex 0.00114704 -0.000257596 -5.828e-05
  endloop
 endfacet
 facet normal -0.00044937 0.883799 0.467866
  outer loop
   vertex -4.15e-05 -0.000232115 -0.000127535
   vertex -4.15e-05 -0.000236007 -0.000120183
   vertex 0.00114704 -0.000235111 -0.000120734
  endloop
 endfacet
 facet normal -0.000450032 0.88375 0.46796
  outer loop
   vertex -4.15e-05 -0.000232115 -0.000127535
   vertex 0.00114704 -0.000235111 -0.000120734
   vertex 0.00114704 -0.000231218 -0.000128086
  endloop
 endfacet
 facet normal 0.000776634 -0.495491 0.868612
  outer loop
   vertex -4.15e-05 0.000134737 -0.000227894
   vertex -4.15e-05 0.000127511 -0.000232016
   vertex 0.00114704 0.000128408 -0.000232567
  endloop
 endfacet
 facet normal 0.00077733 -0.4954 0.868665
  outer loop
   vertex -4.15e-05 0.000134737 -0.000227894
   vertex 0.00114704 0.000128408 -0.000232567
   vertex 0.00114704 0.000135634 -0.000228446
  endloop
 endfacet
 facet normal -0.000883911 0.883799 -0.467866
  outer loop
   vertex -4.15e-05 -0.000236007 0.000120258
   vertex -4.15e-05 -0.000232115 0.00012761
   vertex 0.00114704 -0.000231218 0.000127059
  endloop
 endfacet
 facet normal -0.000883174 0.883749 -0.46796
  outer loop
   vertex -4.15e-05 -0.000236007 0.000120258
   vertex 0.00114704 -0.000231218 0.000127059
   vertex 0.00114704 -0.000235111 0.000119707
  endloop
 endfacet
 facet normal -0.000136448 0.649454 0.760401
  outer loop
   vertex -4.15e-05 -0.000168856 -0.000204001
   vertex -4.15e-05 -0.000175182 -0.000198598
   vertex 0.00114704 -0.000174286 -0.00019915
  endloop
 endfacet
 facet normal -0.000137 0.649385 0.76046
  outer loop
   vertex -4.15e-05 -0.000168856 -0.000204001
   vertex 0.00114704 -0.000174286 -0.00019915
   vertex 0.00114704 -0.00016796 -0.000204552
  endloop
 endfacet
 facet normal -0.000425844 0.868613 0.495492
  outer loop
   vertex -4.15e-05 -0.000227993 -0.000134761
   vertex -4.15e-05 -0.000232115 -0.000127535
   vertex 0.00114704 -0.000231218 -0.000128086
  endloop
 endfacet
 facet normal -0.000425834 0.868613 0.49549
  outer loop
   vertex -4.15e-05 -0.000227993 -0.000134761
   vertex 0.00114704 -0.000231218 -0.000128086
   vertex 0.00114704 -0.000227096 -0.000135312
  endloop
 endfacet
 facet normal -0.000327786 -0.1719 -0.985114
  outer loop
   vertex -4.15e-05 4.1364e-05 0.000261586
   vertex -4.15e-05 4.9559e-05 0.000260156
   vertex 0.00114704 5.0456e-05 0.000259604
  endloop
 endfacet
 facet normal -0.000326874 -0.172015 -0.985094
  outer loop
   vertex -4.15e-05 4.1364e-05 0.000261586
   vertex 0.00114704 5.0456e-05 0.000259604
   vertex 0.00114704 4.2261e-05 0.000261035
  endloop
 endfacet
 facet normal 0.000762503 -0.46801 0.883723
  outer loop
   vertex -4.15e-05 0.000127511 -0.000232016
   vertex -4.15e-05 0.00012016 -0.000235909
   vertex 0.00114704 0.000121056 -0.00023646
  endloop
 endfacet
 facet normal 0.000762873 -0.46796 0.88375
  outer loop
   vertex -4.15e-05 0.000127511 -0.000232016
   vertex 0.00114704 0.000121056 -0.00023646
   vertex 0.00114704 0.000128408 -0.000232567
  endloop
 endfacet
 facet normal -0.000624817 0.97237 0.233443
  outer loop
   vertex -4.15e-05 -0.00025655 -6.5818e-05
   vertex -4.15e-05 -0.000258492 -5.7729e-05
   vertex 0.00114704 -0.000257596 -5.828e-05
  endloop
 endfacet
 facet normal -0.000624817 0.97237 0.233443
  outer loop
   vertex -4.15e-05 -0.00025655 -6.5818e-05
   vertex 0.00114704 -0.000257596 -5.828e-05
   vertex 0.00114704 -0.000255654 -6.6369e-05
  endloop
 endfacet
 facet normal 0.00040051 -0.852619 -0.522534
  outer loop
   vertex -4.15e-05 0.000223524 0.000141929
   vertex -4.15e-05 0.000227871 0.000134836
   vertex 0.00114704 0.000228767 0.000134285
  endloop
 endfacet
 facet normal 0.000401307 -0.852672 -0.522446
  outer loop
   vertex -4.15e-05 0.000223524 0.000141929
   vertex 0.00114704 0.000228767 0.000134285
   vertex 0.00114704 0.000224421 0.000141378
  endloop
 endfacet
 facet normal 0.000881702 -0.898027 0.43994
  outer loop
   vertex -4.15e-05 0.000239545 -0.000112712
   vertex -4.15e-05 0.000235885 -0.000120183
   vertex 0.00114704 0.000236782 -0.000120734
  endloop
 endfacet
 facet normal 0.000881301 -0.898052 0.439889
  outer loop
   vertex -4.15e-05 0.000239545 -0.000112712
   vertex 0.00114704 0.000236782 -0.000120734
   vertex 0.00114704 0.000240441 -0.000113264
  endloop
 endfacet
 facet normal -0.000802518 0.549 -0.835822
  outer loop
   vertex -4.15e-05 -0.000148906 0.000219056
   vertex -4.15e-05 -0.000141953 0.000223623
   vertex 0.00114704 -0.000141056 0.000223071
  endloop
 endfacet
 facet normal -0.000802518 0.549 -0.835822
  outer loop
   vertex -4.15e-05 -0.000148906 0.000219056
   vertex 0.00114704 -0.000141056 0.000223071
   vertex 0.00114704 -0.000148009 0.000218504
  endloop
 endfacet
 facet normal -0.000299137 0.780435 0.625237
  outer loop
   vertex -4.15e-05 -0.0002041 -0.000168758
   vertex -4.15e-05 -0.000209301 -0.000162266
   vertex 0.00114704 -0.000208404 -0.000162817
  endloop
 endfacet
 facet normal -0.000299145 0.780434 0.625238
  outer loop
   vertex -4.15e-05 -0.0002041 -0.000168758
   vertex 0.00114704 -0.000208404 -0.000162817
   vertex 0.00114704 -0.000203203 -0.000169309
  endloop
 endfacet
 facet normal 0.000665813 -0.294035 0.955795
  outer loop
   vertex -4.15e-05 8.1769e-05 -0.00025181
   vertex -4.15e-05 7.3818e-05 -0.000254256
   vertex 0.00114704 7.4715e-05 -0.000254808
  endloop
 endfacet
 facet normal 0.000665813 -0.294035 0.955795
  outer loop
   vertex -4.15e-05 8.1769e-05 -0.00025181
   vertex 0.00114704 7.4715e-05 -0.000254808
   vertex 0.00114704 8.2666e-05 -0.000252362
  endloop
 endfacet
 facet normal 0.000812482 -0.990026 0.140883
  outer loop
   vertex -4.15e-05 0.000262659 -3.3152e-05
   vertex -4.15e-05 0.000261487 -4.1388e-05
   vertex 0.00114704 0.000262384 -4.1939e-05
  endloop
 endfacet
 facet normal 0.000812482 -0.990026 0.140883
  outer loop
   vertex -4.15e-05 0.000262659 -3.3152e-05
   vertex 0.00114704 0.000262384 -4.1939e-05
   vertex 0.00114704 0.000263556 -3.3703e-05
  endloop
 endfacet
 facet normal -0.000823322 0.985115 -0.171896
  outer loop
   vertex -4.15e-05 -0.000261609 4.1463e-05
   vertex -4.15e-05 -0.000260179 4.9658e-05
   vertex 0.00114704 -0.000259282 4.9106e-05
  endloop
 endfacet
 facet normal -0.000822498 0.985093 -0.172018
  outer loop
   vertex -4.15e-05 -0.000261609 4.1463e-05
   vertex 0.00114704 -0.000259282 4.9106e-05
   vertex 0.00114704 -0.000260713 4.0911e-05
  endloop
 endfacet
 facet normal 0.000833028 -0.979222 0.202791
  outer loop
   vertex -4.15e-05 0.000260057 -4.9583e-05
   vertex -4.15e-05 0.00025837 -5.7729e-05
   vertex 0.00114704 0.000259267 -5.828e-05
  endloop
 endfacet
 facet normal 0.000833028 -0.979222 0.202791
  outer loop
   vertex -4.15e-05 0.000260057 -4.9583e-05
   vertex 0.00114704 0.000259267 -5.828e-05
   vertex 0.00114704 0.000260954 -5.0134e-05
  endloop
 endfacet
 facet normal -0.000473428 0.898028 0.439938
  outer loop
   vertex -4.15e-05 -0.000236007 -0.000120183
   vertex -4.15e-05 -0.000239667 -0.000112712
   vertex 0.00114704 -0.00023877 -0.000113264
  endloop
 endfacet
 facet normal -0.000473085 0.898052 0.439889
  outer loop
   vertex -4.15e-05 -0.000236007 -0.000120183
   vertex 0.00114704 -0.00023877 -0.000113264
   vertex 0.00114704 -0.000235111 -0.000120734
  endloop
 endfacet
 facet normal 0.00045249 0.0157483 0.999876
  outer loop
   vertex -4.15e-05 -6.1e-08 -0.000264771
   vertex -4.15e-05 -8.379e-06 -0.00026464
   vertex 0.00114704 -7.482e-06 -0.000265192
  endloop
 endfacet
 facet normal 0.00045173 0.0156266 0.999878
  outer loop
   vertex -4.15e-05 -6.1e-08 -0.000264771
   vertex 0.00114704 -7.482e-06 -0.000265192
   vertex 0.00114704 8.36e-07 -0.000265322
  endloop
 endfacet
 facet normal -8.54189e-05 -0.43994 -0.898027
  outer loop
   vertex -4.15e-05 0.000112689 0.000239644
   vertex -4.15e-05 0.00012016 0.000235984
   vertex 0.00114704 0.000121056 0.000235432
  endloop
 endfacet
 facet normal -8.54189e-05 -0.43994 -0.898027
  outer loop
   vertex -4.15e-05 0.000112689 0.000239644
   vertex 0.00114704 0.000121056 0.000235432
   vertex 0.00114704 0.000113585 0.000239092
  endloop
 endfacet
 facet normal -0.000607662 0.202795 -0.979221
  outer loop
   vertex -4.15e-05 -5.7827e-05 0.000258469
   vertex -4.15e-05 -4.9681e-05 0.000260156
   vertex 0.00114704 -4.8785e-05 0.000259604
  endloop
 endfacet
 facet normal -0.000607662 0.202795 -0.979221
  outer loop
   vertex -4.15e-05 -5.7827e-05 0.000258469
   vertex 0.00114704 -4.8785e-05 0.000259604
   vertex 0.00114704 -5.6931e-05 0.000257917
  endloop
 endfacet
 facet normal -0.000746552 0.99988 0.0155048
  outer loop
   vertex -4.15e-05 -0.000264739 -8.28e-06
   vertex -4.15e-05 -0.000264868 3.8e-08
   vertex 0.00114704 -0.000263972 -5.14e-07
  endloop
 endfacet
 facet normal -0.00074737 0.999878 0.0156302
  outer loop
   vertex -4.15e-05 -0.000264739 -8.28e-06
   vertex 0.00114704 -0.000263972 -5.14e-07
   vertex 0.00114704 -0.000263842 -8.832e-06
  endloop
 endfacet
 facet normal 5.65264e-05 0.46796 0.88375
  outer loop
   vertex -4.15e-05 -0.000120282 -0.000235909
   vertex -4.15e-05 -0.000127634 -0.000232016
   vertex 0.00114704 -0.000126737 -0.000232567
  endloop
 endfacet
 facet normal 5.65264e-05 0.46796 0.88375
  outer loop
   vertex -4.15e-05 -0.000120282 -0.000235909
   vertex 0.00114704 -0.000126737 -0.000232567
   vertex 0.00114704 -0.000119385 -0.00023646
  endloop
 endfacet
 facet normal -0.000522242 0.078498 -0.996914
  outer loop
   vertex -4.15e-05 -2.4982e-05 0.000263671
   vertex -4.15e-05 -1.6689e-05 0.000264324
   vertex 0.00114704 -1.5792e-05 0.000263772
  endloop
 endfacet
 facet normal -0.000522242 0.078498 -0.996914
  outer loop
   vertex -4.15e-05 -2.4982e-05 0.000263671
   vertex 0.00114704 -1.5792e-05 0.000263772
   vertex 0.00114704 -2.4085e-05 0.000263119
  endloop
 endfacet
 facet normal 0.000644833 -0.979222 -0.202791
  outer loop
   vertex -4.15e-05 0.00025837 5.7804e-05
   vertex -4.15e-05 0.000260057 4.9658e-05
   vertex 0.00114704 0.000260954 4.9106e-05
  endloop
 endfacet
 facet normal 0.000644833 -0.979222 -0.202791
  outer loop
   vertex -4.15e-05 0.00025837 5.7804e-05
   vertex 0.00114704 0.000260954 4.9106e-05
   vertex 0.00114704 0.000259267 5.7252e-05
  endloop
 endfacet
 facet normal -0.000787909 0.996914 -0.078498
  outer loop
   vertex -4.15e-05 -0.000264347 1.6665e-05
   vertex -4.15e-05 -0.000263694 2.4958e-05
   vertex 0.00114704 -0.000262798 2.4407e-05
  endloop
 endfacet
 facet normal -0.000787909 0.996914 -0.078498
  outer loop
   vertex -4.15e-05 -0.000264347 1.6665e-05
   vertex 0.00114704 -0.000262798 2.4407e-05
   vertex 0.00114704 -0.000263451 1.6114e-05
  endloop
 endfacet
 facet normal 0.000584776 -0.955795 -0.294035
  outer loop
   vertex -4.15e-05 0.000251787 8.1868e-05
   vertex -4.15e-05 0.000254233 7.3917e-05
   vertex 0.00114704 0.00025513 7.3365e-05
  endloop
 endfacet
 facet normal 0.000585046 -0.955805 -0.294001
  outer loop
   vertex -4.15e-05 0.000251787 8.1868e-05
   vertex 0.00114704 0.00025513 7.3365e-05
   vertex 0.00114704 0.000252684 8.1317e-05
  endloop
 endfacet
 facet normal 0.000475408 -0.0157483 0.999876
  outer loop
   vertex -4.15e-05 8.257e-06 -0.00026464
   vertex -4.15e-05 -6.1e-08 -0.000264771
   vertex 0.00114704 8.36e-07 -0.000265322
  endloop
 endfacet
 facet normal 0.000476158 -0.0156285 0.999878
  outer loop
   vertex -4.15e-05 8.257e-06 -0.00026464
   vertex 0.00114704 8.36e-07 -0.000265322
   vertex 0.00114704 9.153e-06 -0.000265192
  endloop
 endfacet
 facet normal -0.000882375 0.799696 -0.600404
  outer loop
   vertex -4.15e-05 -0.000214296 0.000155688
   vertex -4.15e-05 -0.000209301 0.000162341
   vertex 0.00114704 -0.000208404 0.000161789
  endloop
 endfacet
 facet normal -0.000881875 0.799654 -0.600461
  outer loop
   vertex -4.15e-05 -0.000214296 0.000155688
   vertex 0.00114704 -0.000208404 0.000161789
   vertex 0.00114704 -0.000213399 0.000155137
  endloop
 endfacet
 facet normal 0.000884019 -0.818112 0.575059
  outer loop
   vertex -4.15e-05 0.000218957 -0.000148807
   vertex -4.15e-05 0.000214173 -0.000155613
   vertex 0.00114704 0.00021507 -0.000156164
  endloop
 endfacet
 facet normal 0.000884019 -0.818112 0.575059
  outer loop
   vertex -4.15e-05 0.000218957 -0.000148807
   vertex 0.00114704 0.00021507 -0.000156164
   vertex 0.00114704 0.000219854 -0.000149358
  endloop
 endfacet
 facet normal -0.0001131 -0.411473 -0.911422
  outer loop
   vertex -4.15e-05 0.000105107 0.000243067
   vertex -4.15e-05 0.000112689 0.000239644
   vertex 0.00114704 0.000113585 0.000239092
  endloop
 endfacet
 facet normal -0.000112711 -0.411518 -0.911402
  outer loop
   vertex -4.15e-05 0.000105107 0.000243067
   vertex 0.00114704 0.000113585 0.000239092
   vertex 0.00114704 0.000106004 0.000242515
  endloop
 endfacet
 facet normal 0.000885304 -0.835822 0.549
  outer loop
   vertex -4.15e-05 0.000223524 -0.000141854
   vertex -4.15e-05 0.000218957 -0.000148807
   vertex 0.00114704 0.000219854 -0.000149358
  endloop
 endfacet
 facet normal 0.000885304 -0.835822 0.549
  outer loop
   vertex -4.15e-05 0.000223524 -0.000141854
   vertex 0.00114704 0.000219854 -0.000149358
   vertex 0.00114704 0.000224421 -0.000142405
  endloop
 endfacet
 facet normal -0.000109537 0.625239 0.780433
  outer loop
   vertex -4.15e-05 -0.000162364 -0.000209202
   vertex -4.15e-05 -0.000168856 -0.000204001
   vertex 0.00114704 -0.00016796 -0.000204552
  endloop
 endfacet
 facet normal -0.000108971 0.625311 0.780376
  outer loop
   vertex -4.15e-05 -0.000162364 -0.000209202
   vertex 0.00114704 -0.00016796 -0.000204552
   vertex 0.00114704 -0.000161468 -0.000209754
  endloop
 endfacet
 facet normal -8.12825e-05 0.60046 0.799655
  outer loop
   vertex -4.15e-05 -0.000155712 -0.000214197
   vertex -4.15e-05 -0.000162364 -0.000209202
   vertex 0.00114704 -0.000161468 -0.000209754
  endloop
 endfacet
 facet normal -8.23038e-05 0.600326 0.799755
  outer loop
   vertex -4.15e-05 -0.000155712 -0.000214197
   vertex 0.00114704 -0.000161468 -0.000209754
   vertex 0.00114704 -0.000154815 -0.000214748
  endloop
 endfacet
 facet normal 0.000248962 0.26397 0.964531
  outer loop
   vertex -4.15e-05 -6.5916e-05 -0.000256452
   vertex -4.15e-05 -7.394e-05 -0.000254256
   vertex 0.00114704 -7.3044e-05 -0.000254808
  endloop
 endfacet
 facet normal 0.000248261 0.26386 0.964561
  outer loop
   vertex -4.15e-05 -6.5916e-05 -0.000256452
   vertex 0.00114704 -7.3044e-05 -0.000254808
   vertex 0.00114704 -6.502e-05 -0.000257003
  endloop
 endfacet
 facet normal 0.000563802 -0.946067 -0.323972
  outer loop
   vertex -4.15e-05 0.000249092 8.9738e-05
   vertex -4.15e-05 0.000251787 8.1868e-05
   vertex 0.00114704 0.000252684 8.1317e-05
  endloop
 endfacet
 facet normal 0.000563818 -0.946067 -0.32397
  outer loop
   vertex -4.15e-05 0.000249092 8.9738e-05
   vertex 0.00114704 0.000252684 8.1317e-05
   vertex 0.00114704 0.000249989 8.9187e-05
  endloop
 endfacet
 facet normal 0.000192353 -0.695962 -0.718079
  outer loop
   vertex -4.15e-05 0.000181213 0.000193075
   vertex -4.15e-05 0.000187187 0.000187285
   vertex 0.00114704 0.000188084 0.000186734
  endloop
 endfacet
 facet normal 0.000191009 -0.695839 -0.718198
  outer loop
   vertex -4.15e-05 0.000181213 0.000193075
   vertex 0.00114704 0.000188084 0.000186734
   vertex 0.00114704 0.000182109 0.000192523
  endloop
 endfacet
 facet normal 2.94763e-05 0.495492 0.868612
  outer loop
   vertex -4.15e-05 -0.000127634 -0.000232016
   vertex -4.15e-05 -0.00013486 -0.000227894
   vertex 0.00114704 -0.000133963 -0.000228446
  endloop
 endfacet
 facet normal 2.8824e-05 0.4954 0.868665
  outer loop
   vertex -4.15e-05 -0.000127634 -0.000232016
   vertex 0.00114704 -0.000133963 -0.000228446
   vertex 0.00114704 -0.000126737 -0.000232567
  endloop
 endfacet
 facet normal 0.000823863 -0.600403 0.799697
  outer loop
   vertex -4.15e-05 0.000162242 -0.000209202
   vertex -4.15e-05 0.000155589 -0.000214197
   vertex 0.00114704 0.000156486 -0.000214748
  endloop
 endfacet
 facet normal 0.000824504 -0.600326 0.799755
  outer loop
   vertex -4.15e-05 0.000162242 -0.000209202
   vertex 0.00114704 0.000156486 -0.000214748
   vertex 0.00114704 0.000163139 -0.000209754
  endloop
 endfacet
 facet normal 0.000222024 0.294001 0.955805
  outer loop
   vertex -4.15e-05 -7.394e-05 -0.000254256
   vertex -4.15e-05 -8.1892e-05 -0.00025181
   vertex 0.00114704 -8.0995e-05 -0.000252362
  endloop
 endfacet
 facet normal 0.00022224 0.294035 0.955795
  outer loop
   vertex -4.15e-05 -7.394e-05 -0.000254256
   vertex 0.00114704 -8.0995e-05 -0.000252362
   vertex 0.00114704 -7.3044e-05 -0.000254808
  endloop
 endfacet
 facet normal 0.000542167 -0.935467 -0.353414
  outer loop
   vertex -4.15e-05 0.000246152 9.752e-05
   vertex -4.15e-05 0.000249092 8.9738e-05
   vertex 0.00114704 0.000249989 8.9187e-05
  endloop
 endfacet
 facet normal 0.000541301 -0.935427 -0.35352
  outer loop
   vertex -4.15e-05 0.000246152 9.752e-05
   vertex 0.00114704 0.000249989 8.9187e-05
   vertex 0.00114704 0.000247048 9.6969e-05
  endloop
 endfacet
 facet normal -0.000221992 -0.294035 -0.955795
  outer loop
   vertex -4.15e-05 7.3818e-05 0.000254332
   vertex -4.15e-05 8.1769e-05 0.000251886
   vertex 0.00114704 8.2666e-05 0.000251334
  endloop
 endfacet
 facet normal -0.000221992 -0.294035 -0.955795
  outer loop
   vertex -4.15e-05 7.3818e-05 0.000254332
   vertex 0.00114704 8.2666e-05 0.000251334
   vertex 0.00114704 7.4715e-05 0.00025378
  endloop
 endfacet
 facet normal -0.000790338 0.522534 -0.852618
  outer loop
   vertex -4.15e-05 -0.000141953 0.000223623
   vertex -4.15e-05 -0.00013486 0.00022797
   vertex 0.00114704 -0.000133963 0.000227418
  endloop
 endfacet
 facet normal -0.000790345 0.522535 -0.852618
  outer loop
   vertex -4.15e-05 -0.000141953 0.000223623
   vertex 0.00114704 -0.000133963 0.000227418
   vertex 0.00114704 -0.000141056 0.000223071
  endloop
 endfacet
 facet normal 0.000167641 0.35352 0.935427
  outer loop
   vertex -4.15e-05 -8.9762e-05 -0.000249116
   vertex -4.15e-05 -9.7544e-05 -0.000246175
   vertex 0.00114704 -9.6647e-05 -0.000246727
  endloop
 endfacet
 facet normal 0.000166951 0.353414 0.935467
  outer loop
   vertex -4.15e-05 -8.9762e-05 -0.000249116
   vertex 0.00114704 -9.6647e-05 -0.000246727
   vertex 0.00114704 -8.8865e-05 -0.000249667
  endloop
 endfacet
 facet normal -0.000715127 0.996914 0.0784979
  outer loop
   vertex -4.15e-05 -0.000263694 -2.4883e-05
   vertex -4.15e-05 -0.000264347 -1.659e-05
   vertex 0.00114704 -0.000263451 -1.7141e-05
  endloop
 endfacet
 facet normal -0.000715066 0.996915 0.0784885
  outer loop
   vertex -4.15e-05 -0.000263694 -2.4883e-05
   vertex 0.00114704 -0.000263451 -1.7141e-05
   vertex 0.00114704 -0.000262798 -2.5435e-05
  endloop
 endfacet
 facet normal -0.000884035 0.818168 -0.574978
  outer loop
   vertex -4.15e-05 -0.000219079 0.000148882
   vertex -4.15e-05 -0.000214296 0.000155688
   vertex 0.00114704 -0.000213399 0.000155137
  endloop
 endfacet
 facet normal -0.000883342 0.818112 -0.575059
  outer loop
   vertex -4.15e-05 -0.000219079 0.000148882
   vertex 0.00114704 -0.000213399 0.000155137
   vertex 0.00114704 -0.000218183 0.000148331
  endloop
 endfacet
 facet normal -0.000870141 0.739618 -0.673027
  outer loop
   vertex -4.15e-05 -0.000198697 0.000175159
   vertex -4.15e-05 -0.000193098 0.000181312
   vertex 0.00114704 -0.000192202 0.00018076
  endloop
 endfacet
 facet normal -0.000870795 0.739679 -0.672959
  outer loop
   vertex -4.15e-05 -0.000198697 0.000175159
   vertex 0.00114704 -0.000192202 0.00018076
   vertex 0.00114704 -0.0001978 0.000174607
  endloop
 endfacet
 facet normal -0.00077659 0.4954 -0.868664
  outer loop
   vertex -4.15e-05 -0.00013486 0.00022797
   vertex -4.15e-05 -0.000127634 0.000232091
   vertex 0.00114704 -0.000126737 0.00023154
  endloop
 endfacet
 facet normal -0.000777357 0.49549 -0.868613
  outer loop
   vertex -4.15e-05 -0.00013486 0.00022797
   vertex 0.00114704 -0.000126737 0.00023154
   vertex 0.00114704 -0.000133963 0.000227418
  endloop
 endfacet
 facet normal 0.000813926 -0.574978 0.818168
  outer loop
   vertex -4.15e-05 0.000155589 -0.000214197
   vertex -4.15e-05 0.000148783 -0.00021898
   vertex 0.00114704 0.00014968 -0.000219532
  endloop
 endfacet
 facet normal 0.000813273 -0.575059 0.818112
  outer loop
   vertex -4.15e-05 0.000155589 -0.000214197
   vertex 0.00114704 0.00014968 -0.000219532
   vertex 0.00114704 0.000156486 -0.000214748
  endloop
 endfacet
 facet normal 0.000681857 -0.990026 -0.140884
  outer loop
   vertex -4.15e-05 0.000261487 4.1463e-05
   vertex -4.15e-05 0.000262659 3.3227e-05
   vertex 0.00114704 0.000263556 3.2676e-05
  endloop
 endfacet
 facet normal 0.000681729 -0.990024 -0.1409
  outer loop
   vertex -4.15e-05 0.000261487 4.1463e-05
   vertex 0.00114704 0.000263556 3.2676e-05
   vertex 0.00114704 0.000262384 4.0911e-05
  endloop
 endfacet
 facet normal -0.000832389 0.979221 -0.202795
  outer loop
   vertex -4.15e-05 -0.000260179 4.9658e-05
   vertex -4.15e-05 -0.000258492 5.7804e-05
   vertex 0.00114704 -0.000257596 5.7252e-05
  endloop
 endfacet
 facet normal -0.000833188 0.979245 -0.202678
  outer loop
   vertex -4.15e-05 -0.000260179 4.9658e-05
   vertex 0.00114704 -0.000257596 5.7252e-05
   vertex 0.00114704 -0.000259282 4.9106e-05
  endloop
 endfacet
 facet normal 0.000218717 -0.718081 -0.695959
  outer loop
   vertex -4.15e-05 0.000187187 0.000187285
   vertex -4.15e-05 0.000192976 0.000181312
   vertex 0.00114704 0.000193873 0.00018076
  endloop
 endfacet
 facet normal 0.000219373 -0.71814 -0.695899
  outer loop
   vertex -4.15e-05 0.000187187 0.000187285
   vertex 0.00114704 0.000193873 0.00018076
   vertex 0.00114704 0.000188084 0.000186734
  endloop
 endfacet
 facet normal -0.000842087 0.649385 -0.760459
  outer loop
   vertex -4.15e-05 -0.000175182 0.000198674
   vertex -4.15e-05 -0.000168856 0.000204076
   vertex 0.00114704 -0.00016796 0.000203525
  endloop
 endfacet
 facet normal -0.000842759 0.649455 -0.760399
  outer loop
   vertex -4.15e-05 -0.000175182 0.000198674
   vertex 0.00114704 -0.00016796 0.000203525
   vertex 0.00114704 -0.000174286 0.000198122
  endloop
 endfacet
 facet normal 0.000700185 -0.353559 0.935412
  outer loop
   vertex -4.15e-05 9.7421e-05 -0.000246175
   vertex -4.15e-05 8.964e-05 -0.000249116
   vertex 0.00114704 9.0536e-05 -0.000249667
  endloop
 endfacet
 facet normal 0.000701186 -0.353414 0.935467
  outer loop
   vertex -4.15e-05 9.7421e-05 -0.000246175
   vertex 0.00114704 9.0536e-05 -0.000249667
   vertex 0.00114704 9.8318e-05 -0.000246727
  endloop
 endfacet
 facet normal -0.000875517 0.760401 -0.649453
  outer loop
   vertex -4.15e-05 -0.0002041 0.000168833
   vertex -4.15e-05 -0.000198697 0.000175159
   vertex 0.00114704 -0.0001978 0.000174607
  endloop
 endfacet
 facet normal -0.000874953 0.76035 -0.649513
  outer loop
   vertex -4.15e-05 -0.0002041 0.000168833
   vertex 0.00114704 -0.0001978 0.000174607
   vertex 0.00114704 -0.000203203 0.000168282
  endloop
 endfacet
 facet normal -0.000325195 0.799697 0.600404
  outer loop
   vertex -4.15e-05 -0.000209301 -0.000162266
   vertex -4.15e-05 -0.000214296 -0.000155613
   vertex 0.00114704 -0.000213399 -0.000156164
  endloop
 endfacet
 facet normal -0.000325187 0.799697 0.600403
  outer loop
   vertex -4.15e-05 -0.000209301 -0.000162266
   vertex 0.00114704 -0.000213399 -0.000156164
   vertex 0.00114704 -0.000208404 -0.000162817
  endloop
 endfacet
 facet normal -0.000698387 0.993973 0.109624
  outer loop
   vertex -4.15e-05 -0.000262782 -3.3152e-05
   vertex -4.15e-05 -0.000263694 -2.4883e-05
   vertex 0.00114704 -0.000262798 -2.5435e-05
  endloop
 endfacet
 facet normal -0.000699277 0.993958 0.109761
  outer loop
   vertex -4.15e-05 -0.000262782 -3.3152e-05
   vertex 0.00114704 -0.000262798 -2.5435e-05
   vertex 0.00114704 -0.000261885 -3.3703e-05
  endloop
 endfacet
 facet normal 0.000761862 -0.999878 0.0156266
  outer loop
   vertex -4.15e-05 0.000264747 3.8e-08
   vertex -4.15e-05 0.000264617 -8.28e-06
   vertex 0.00114704 0.000265514 -8.832e-06
  endloop
 endfacet
 facet normal 0.000761889 -0.999878 0.0156302
  outer loop
   vertex -4.15e-05 0.000264747 3.8e-08
   vertex 0.00114704 0.000265514 -8.832e-06
   vertex 0.00114704 0.000265644 -5.14e-07
  endloop
 endfacet
 facet normal 0.000450032 -0.88375 -0.467959
  outer loop
   vertex -4.15e-05 0.000231992 0.00012761
   vertex -4.15e-05 0.000235885 0.000120258
   vertex 0.00114704 0.000236782 0.000119707
  endloop
 endfacet
 facet normal 0.00045002 -0.88375 -0.46796
  outer loop
   vertex -4.15e-05 0.000231992 0.00012761
   vertex 0.00114704 0.000236782 0.000119707
   vertex 0.00114704 0.000232889 0.000127059
  endloop
 endfacet
 facet normal -0.000301732 -0.202795 -0.979221
  outer loop
   vertex -4.15e-05 4.9559e-05 0.000260156
   vertex -4.15e-05 5.7705e-05 0.000258469
   vertex 0.00114704 5.8602e-05 0.000257917
  endloop
 endfacet
 facet normal -0.000301733 -0.202795 -0.979221
  outer loop
   vertex -4.15e-05 4.9559e-05 0.000260156
   vertex 0.00114704 5.8602e-05 0.000257917
   vertex 0.00114704 5.0456e-05 0.000259604
  endloop
 endfacet
 facet normal 0.000884512 -0.868664 0.495401
  outer loop
   vertex -4.15e-05 0.000231992 -0.000127535
   vertex -4.15e-05 0.000227871 -0.000134761
   vertex 0.00114704 0.000228767 -0.000135312
  endloop
 endfacet
 facet normal 0.000885245 -0.868612 0.495491
  outer loop
   vertex -4.15e-05 0.000231992 -0.000127535
   vertex 0.00114704 0.000228767 -0.000135312
   vertex 0.00114704 0.000232889 -0.000128086
  endloop
 endfacet
 facet normal -0.000884613 0.835822 -0.549
  outer loop
   vertex -4.15e-05 -0.000223646 0.000141929
   vertex -4.15e-05 -0.000219079 0.000148882
   vertex 0.00114704 -0.000218183 0.000148331
  endloop
 endfacet
 facet normal -0.000884613 0.835822 -0.549
  outer loop
   vertex -4.15e-05 -0.000223646 0.000141929
   vertex 0.00114704 -0.000218183 0.000148331
   vertex 0.00114704 -0.00022275 0.000141378
  endloop
 endfacet
 facet normal -0.000585045 0.955794 0.294038
  outer loop
   vertex -4.15e-05 -0.000251909 -8.1793e-05
   vertex -4.15e-05 -0.000254355 -7.3842e-05
   vertex 0.00114704 -0.000253458 -7.4393e-05
  endloop
 endfacet
 facet normal -0.000585023 0.955795 0.294034
  outer loop
   vertex -4.15e-05 -0.000251909 -8.1793e-05
   vertex 0.00114704 -0.000253458 -7.4393e-05
   vertex 0.00114704 -0.000251012 -8.2344e-05
  endloop
 endfacet
 facet normal 0.00064638 -0.26397 0.964531
  outer loop
   vertex -4.15e-05 7.3818e-05 -0.000254256
   vertex -4.15e-05 6.5794e-05 -0.000256452
   vertex 0.00114704 6.6691e-05 -0.000257003
  endloop
 endfacet
 facet normal 0.000647111 -0.26386 0.964561
  outer loop
   vertex -4.15e-05 7.3818e-05 -0.000254256
   vertex 0.00114704 6.6691e-05 -0.000257003
   vertex 0.00114704 7.4715e-05 -0.000254808
  endloop
 endfacet
 facet normal 0.000883905 -0.88375 0.467958
  outer loop
   vertex -4.15e-05 0.000235885 -0.000120183
   vertex -4.15e-05 0.000231992 -0.000127535
   vertex 0.00114704 0.000232889 -0.000128086
  endloop
 endfacet
 facet normal 0.000883917 -0.883749 0.46796
  outer loop
   vertex -4.15e-05 0.000235885 -0.000120183
   vertex 0.00114704 0.000232889 -0.000128086
   vertex 0.00114704 0.000236782 -0.000120734
  endloop
 endfacet
 facet normal -0.000248836 -0.26386 -0.964561
  outer loop
   vertex -4.15e-05 6.5794e-05 0.000256527
   vertex -4.15e-05 7.3818e-05 0.000254332
   vertex 0.00114704 7.4715e-05 0.00025378
  endloop
 endfacet
 facet normal -0.000248838 -0.26386 -0.964561
  outer loop
   vertex -4.15e-05 6.5794e-05 0.000256527
   vertex 0.00114704 7.4715e-05 0.00025378
   vertex 0.00114704 6.6691e-05 0.000255975
  endloop
 endfacet
 facet normal -0.000864575 0.718081 -0.695959
  outer loop
   vertex -4.15e-05 -0.000193098 0.000181312
   vertex -4.15e-05 -0.000187309 0.000187285
   vertex 0.00114704 -0.000186412 0.000186734
  endloop
 endfacet
 facet normal -0.000864556 0.718079 -0.695961
  outer loop
   vertex -4.15e-05 -0.000193098 0.000181312
   vertex 0.00114704 -0.000186412 0.000186734
   vertex 0.00114704 -0.000192202 0.00018076
  endloop
 endfacet
 facet normal -0.000681814 0.990009 0.141003
  outer loop
   vertex -4.15e-05 -0.000261609 -4.1388e-05
   vertex -4.15e-05 -0.000262782 -3.3152e-05
   vertex 0.00114704 -0.000261885 -3.3703e-05
  endloop
 endfacet
 facet normal -0.000681015 0.990026 0.14088
  outer loop
   vertex -4.15e-05 -0.000261609 -4.1388e-05
   vertex 0.00114704 -0.000261885 -3.3703e-05
   vertex 0.00114704 -0.000260713 -4.1939e-05
  endloop
 endfacet
 facet normal -0.000717103 0.38266 -0.923889
  outer loop
   vertex -4.15e-05 -0.000105229 0.000243067
   vertex -4.15e-05 -9.7544e-05 0.00024625
   vertex 0.00114704 -9.6647e-05 0.000245699
  endloop
 endfacet
 facet normal -0.000717591 0.38272 -0.923864
  outer loop
   vertex -4.15e-05 -0.000105229 0.000243067
   vertex 0.00114704 -9.6647e-05 0.000245699
   vertex 0.00114704 -0.000104333 0.000242515
  endloop
 endfacet
 facet normal -0.000428352 -0.0471241 -0.998889
  outer loop
   vertex -4.15e-05 8.257e-06 0.000264716
   vertex -4.15e-05 1.6566e-05 0.000264324
   vertex 0.00114704 1.7463e-05 0.000263772
  endloop
 endfacet
 facet normal -0.00042745 -0.04724 -0.998883
  outer loop
   vertex -4.15e-05 8.257e-06 0.000264716
   vertex 0.00114704 1.7463e-05 0.000263772
   vertex 0.00114704 9.153e-06 0.000264165
  endloop
 endfacet
 facet normal 0.000869058 -0.935467 0.353414
  outer loop
   vertex -4.15e-05 0.000249092 -8.9663e-05
   vertex -4.15e-05 0.000246152 -9.7445e-05
   vertex 0.00114704 0.000247048 -9.7996e-05
  endloop
 endfacet
 facet normal 0.000869864 -0.935427 0.353519
  outer loop
   vertex -4.15e-05 0.000249092 -8.9663e-05
   vertex 0.00114704 0.000247048 -9.7996e-05
   vertex 0.00114704 0.000249989 -9.0214e-05
  endloop
 endfacet
 facet normal 0.000499442 -0.0471241 0.998889
  outer loop
   vertex -4.15e-05 1.6566e-05 -0.000264248
   vertex -4.15e-05 8.257e-06 -0.00026464
   vertex 0.00114704 9.153e-06 -0.000265192
  endloop
 endfacet
 facet normal 0.000499477 -0.0471185 0.998889
  outer loop
   vertex -4.15e-05 1.6566e-05 -0.000264248
   vertex 0.00114704 9.153e-06 -0.000265192
   vertex 0.00114704 1.7463e-05 -0.0002648
  endloop
 endfacet
 facet normal 0.000875003 -0.923846 0.382763
  outer loop
   vertex -4.15e-05 0.000246152 -9.7445e-05
   vertex -4.15e-05 0.000242968 -0.00010513
   vertex 0.00114704 0.000243865 -0.000105682
  endloop
 endfacet
 facet normal 0.000873881 -0.923906 0.382618
  outer loop
   vertex -4.15e-05 0.000246152 -9.7445e-05
   vertex 0.00114704 0.000243865 -0.000105682
   vertex 0.00114704 0.000247048 -9.7996e-05
  endloop
 endfacet
 facet normal -0.000519861 0.92389 0.382659
  outer loop
   vertex -4.15e-05 -0.000243091 -0.00010513
   vertex -4.15e-05 -0.000246274 -9.7445e-05
   vertex 0.00114704 -0.000245377 -9.7996e-05
  endloop
 endfacet
 facet normal -0.000519581 0.923907 0.382618
  outer loop
   vertex -4.15e-05 -0.000243091 -0.00010513
   vertex 0.00114704 -0.000245377 -9.7996e-05
   vertex 0.00114704 -0.000242194 -0.000105682
  endloop
 endfacet
 facet normal 0.000136907 -0.649385 -0.76046
  outer loop
   vertex -4.15e-05 0.000168734 0.000204076
   vertex -4.15e-05 0.00017506 0.000198674
   vertex 0.00114704 0.000175957 0.000198122
  endloop
 endfacet
 facet normal 0.000137634 -0.649455 -0.7604
  outer loop
   vertex -4.15e-05 0.000168734 0.000204076
   vertex 0.00114704 0.000175957 0.000198122
   vertex 0.00114704 0.000169631 0.000203525
  endloop
 endfacet
 facet normal 0.000870772 -0.739619 0.673026
  outer loop
   vertex -4.15e-05 0.000198575 -0.000175083
   vertex -4.15e-05 0.000192976 -0.000181236
   vertex 0.00114704 0.000193873 -0.000181788
  endloop
 endfacet
 facet normal 0.000870156 -0.739679 0.672959
  outer loop
   vertex -4.15e-05 0.000198575 -0.000175083
   vertex 0.00114704 0.000193873 -0.000181788
   vertex 0.00114704 0.000199471 -0.000175635
  endloop
 endfacet
 facet normal 0.000851433 -0.673025 0.739619
  outer loop
   vertex -4.15e-05 0.000181213 -0.000192999
   vertex -4.15e-05 0.00017506 -0.000198598
   vertex 0.00114704 0.000175957 -0.00019915
  endloop
 endfacet
 facet normal 0.000850888 -0.673085 0.739565
  outer loop
   vertex -4.15e-05 0.000181213 -0.000192999
   vertex 0.00114704 0.000175957 -0.00019915
   vertex 0.00114704 0.000182109 -0.000193551
  endloop
 endfacet
 facet normal 8.16408e-05 -0.600328 -0.799754
  outer loop
   vertex -4.15e-05 0.000155589 0.000214272
   vertex -4.15e-05 0.000162242 0.000209278
   vertex 0.00114704 0.000163139 0.000208726
  endloop
 endfacet
 facet normal 8.23972e-05 -0.600404 -0.799697
  outer loop
   vertex -4.15e-05 0.000155589 0.000214272
   vertex 0.00114704 0.000163139 0.000208726
   vertex 0.00114704 0.000156486 0.000213721
  endloop
 endfacet
 facet normal 0.000874862 -0.760409 0.649444
  outer loop
   vertex -4.15e-05 0.000203977 -0.000168758
   vertex -4.15e-05 0.000198575 -0.000175083
   vertex 0.00114704 0.000199471 -0.000175635
  endloop
 endfacet
 facet normal 0.000874954 -0.7604 0.649454
  outer loop
   vertex -4.15e-05 0.000203977 -0.000168758
   vertex 0.00114704 0.000199471 -0.000175635
   vertex 0.00114704 0.000204874 -0.000169309
  endloop
 endfacet
 facet normal -0.000774852 0.998889 -0.047122
  outer loop
   vertex -4.15e-05 -0.000264739 8.355e-06
   vertex -4.15e-05 -0.000264347 1.6665e-05
   vertex 0.00114704 -0.000263451 1.6114e-05
  endloop
 endfacet
 facet normal -0.000775675 0.998895 -0.0469969
  outer loop
   vertex -4.15e-05 -0.000264739 8.355e-06
   vertex 0.00114704 -0.000263451 1.6114e-05
   vertex 0.00114704 -0.000263842 7.804e-06
  endloop
 endfacet
 facet normal 0.000732015 -0.998889 -0.0471185
  outer loop
   vertex -4.15e-05 0.000264225 1.6665e-05
   vertex -4.15e-05 0.000264617 8.355e-06
   vertex 0.00114704 0.000265514 7.804e-06
  endloop
 endfacet
 facet normal 0.000732015 -0.998889 -0.0471185
  outer loop
   vertex -4.15e-05 0.000264225 1.6665e-05
   vertex 0.00114704 0.000265514 7.804e-06
   vertex 0.00114704 0.000265122 1.6114e-05
  endloop
 endfacet
 facet normal 0.000733123 -0.411574 0.911376
  outer loop
   vertex -4.15e-05 0.000112689 -0.000239568
   vertex -4.15e-05 0.000105107 -0.000242992
   vertex 0.00114704 0.000106004 -0.000243543
  endloop
 endfacet
 facet normal 0.000733514 -0.411519 0.911401
  outer loop
   vertex -4.15e-05 0.000112689 -0.000239568
   vertex 0.00114704 0.000106004 -0.000243543
   vertex 0.00114704 0.000113585 -0.00024012
  endloop
 endfacet
 facet normal 0.000850274 -0.964561 0.26386
  outer loop
   vertex -4.15e-05 0.000256428 -6.5818e-05
   vertex -4.15e-05 0.000254233 -7.3842e-05
   vertex 0.00114704 0.00025513 -7.4393e-05
  endloop
 endfacet
 facet normal 0.000850274 -0.964561 0.26386
  outer loop
   vertex -4.15e-05 0.000256428 -6.5818e-05
   vertex 0.00114704 0.00025513 -7.4393e-05
   vertex 0.00114704 0.000257325 -6.6369e-05
  endloop
 endfacet
 facet normal -0.00081396 0.575058 -0.818112
  outer loop
   vertex -4.15e-05 -0.000155712 0.000214272
   vertex -4.15e-05 -0.000148906 0.000219056
   vertex 0.00114704 -0.000148009 0.000218504
  endloop
 endfacet
 facet normal -0.000813231 0.574977 -0.818169
  outer loop
   vertex -4.15e-05 -0.000155712 0.000214272
   vertex 0.00114704 -0.000148009 0.000218504
   vertex 0.00114704 -0.000154815 0.000213721
  endloop
 endfacet
 facet normal 0.000878183 -0.911422 0.411473
  outer loop
   vertex -4.15e-05 0.000242968 -0.00010513
   vertex -4.15e-05 0.000239545 -0.000112712
   vertex 0.00114704 0.000240441 -0.000113264
  endloop
 endfacet
 facet normal 0.000878972 -0.911376 0.411574
  outer loop
   vertex -4.15e-05 0.000242968 -0.00010513
   vertex 0.00114704 0.000240441 -0.000113264
   vertex 0.00114704 0.000243865 -0.000105682
  endloop
 endfacet
 facet normal -0.00085052 0.964561 -0.26386
  outer loop
   vertex -4.15e-05 -0.00025655 6.5893e-05
   vertex -4.15e-05 -0.000254355 7.3917e-05
   vertex 0.00114704 -0.000253458 7.3365e-05
  endloop
 endfacet
 facet normal -0.000849727 0.96453 -0.263973
  outer loop
   vertex -4.15e-05 -0.00025655 6.5893e-05
   vertex 0.00114704 -0.000253458 7.3365e-05
   vertex 0.00114704 -0.000255654 6.5341e-05
  endloop
 endfacet
 facet normal 0.000272867 -0.760461 -0.649384
  outer loop
   vertex -4.15e-05 0.000198575 0.000175159
   vertex -4.15e-05 0.000203977 0.000168833
   vertex 0.00114704 0.000204874 0.000168282
  endloop
 endfacet
 facet normal 0.000271531 -0.76035 -0.649514
  outer loop
   vertex -4.15e-05 0.000198575 0.000175159
   vertex 0.00114704 0.000204874 0.000168282
   vertex 0.00114704 0.000199471 0.000174607
  endloop
 endfacet
endsolid ExportedfromBlender-3.1.2
